<svg id="Layer_1" enable-background="new 0 0 256 256" height="512" viewBox="0 0 256 256" width="512" xmlns="http://www.w3.org/2000/svg"><g><path d="m110.676 29.666-101.999 176.667c-7.698 13.333 1.925 30 17.321 30h203.997c15.396 0 25.019-16.667 17.321-30l-101.999-176.667c-7.698-13.333-26.943-13.333-34.641 0z" fill="#f0c020"/><path d="m229.995 225.833h-187.316c-3.303 0-3.308-5 0-5h187.315c3.449 0 5.653-3.708 3.897-6.75l-101.998-176.667c-.69-1.196-.281-2.725.915-3.415 1.195-.692 2.725-.281 3.415.915l101.999 176.667c3.674 6.365-.931 14.25-8.227 14.25zm-197.316 0h-6.682c-3.303 0-3.308-5 0-5h6.682c3.303 0 3.308 5 0 5z" fill="#f8e5b0"/><path d="m34.658 211.333 93.338-161.667 93.338 161.667z" fill="#efefef"/><path d="m200.549 201.833h-126.37c-3.303 0-3.308-5 0-5h122.04l-50.149-86.862c-1.652-2.861 2.677-5.365 4.33-2.5l52.314 90.612c.962 1.665-.244 3.75-2.165 3.75zm-136.37 0h-8.736c-3.303 0-3.308-5 0-5h8.736c3.303 0 3.308 5 0 5z" fill="#fff"/><path d="m136.592 93.554-10.761-18.638c-.69-1.196-.281-2.725.915-3.415 1.195-.692 2.725-.281 3.415.915l10.761 18.638c.69 1.196.281 2.725-.915 3.415-1.193.69-2.724.283-3.415-.915z" fill="#fff"/><path d="m137.329 159.333h-18.666l-1.981-56h22.628z" fill="#fc5d3d"/><path d="m118.663 174.999h18.667v17h-18.667z" fill="#fc5d3d"/><path d="m25.996 238.829h204c17.304 0 28.154-18.788 19.48-33.75l-102-176.66c-8.56-14.938-30.298-15.058-38.97 0l-74.99 129.9c-.704 1.201-.273 2.727.91 3.42 1.16.66 2.75.23 3.42-.92l74.99-129.9c6.73-11.649 23.561-11.683 30.31 0l102 176.66c6.822 11.787-1.866 26.236-15.15 26.25h-204c-13.27-.014-21.985-14.438-15.15-26.25l16.99-29.44c.702-1.198.277-2.723-.91-3.42-1.16-.66-2.75-.23-3.42.92l-16.99 29.44c-8.629 14.884 2.096 33.75 19.48 33.75z"/><path d="m29.426 170.399c1.157.67 2.708.299 3.42-.92.695-1.221.25-2.744-.92-3.41-1.16-.67-2.75-.24-3.42.91-.681 1.19-.27 2.73.92 3.42z"/><path d="m139.306 100.829h-22.62c-1.459 0-2.561 1.239-2.5 2.59l.52 14.7c.05 1.38 1.18 2.48 2.58 2.4 1.38-.04 2.46-1.2 2.42-2.58 0-.01-.01-.01-.01-.02l-.42-12.09h17.44l-1.8 51h-13.84l-.67-18.91c-.05-1.38-1.19-2.45-2.59-2.41-1.38.06-2.46 1.22-2.41 2.59l.76 21.32c.05 1.35 1.14 2.41 2.5 2.41h18.66c1.36 0 2.45-1.06 2.5-2.41l1.98-56c.042-1.44-1.115-2.59-2.5-2.59z"/><path d="m120.056 127.929c-.05-1.38-1.18-2.46-2.59-2.41-1.37.061-2.451 1.191-2.41 2.59.05 1.35 1.14 2.41 2.49 2.41 1.4 0 2.552-1.151 2.51-2.59z"/><path d="m137.329 172.499h-18.667c-1.381 0-2.5 1.119-2.5 2.5v17c0 1.381 1.119 2.5 2.5 2.5h18.667c1.381 0 2.5-1.119 2.5-2.5v-17c0-1.38-1.119-2.5-2.5-2.5zm-2.5 17h-13.667v-12h13.667z"/><path d="m185.906 149.969c1.163-.662 1.626-2.17.92-3.41l-56.66-98.14c-.973-1.663-3.368-1.663-4.34 0l-93.33 161.66c-.966 1.652.238 3.75 2.16 3.75h186.68c1.923 0 3.125-2.098 2.16-3.75l-26.67-46.2c-.67-1.15-2.26-1.58-3.42-.92-1.19.69-1.6 2.22-.91 3.42l24.51 42.45h-178.02l89.01-154.16 54.5 94.39c.66 1.15 2.25 1.58 3.41.91z"/><path d="m190.906 158.629c1.19-.677 1.613-2.192.92-3.41-.67-1.15-2.26-1.58-3.42-.92-1.19.69-1.6 2.22-.91 3.42.66 1.156 2.173 1.627 3.41.91z"/></g></svg>