<?xml version="1.0"?>
<svg xmlns="http://www.w3.org/2000/svg" id="Fill_out_line" data-name="Fill out line" viewBox="0 0 512 512" width="512" height="512"><title>gift-box-christmas-shopping-event</title><rect x="48" y="168" width="352" height="320" style="fill:#eb352f"/><rect x="400" y="168" width="64" height="319.5" style="fill:#c7161f"/><rect x="48" y="168" width="352" height="32" style="fill:#c7161f"/><rect x="400" y="168" width="64" height="32" style="fill:#a8070f"/><rect x="200" y="168" width="48" height="320" style="fill:#f2e368"/><rect x="24" y="120" width="400" height="48" style="fill:#eb352f"/><rect x="184" y="120" width="80" height="48" style="fill:#f2e368"/><rect x="424" y="120" width="64" height="48" style="fill:#c7161f"/><path d="M264,120,368,224V167.74012a38,38,0,0,0-11.12994-26.87006L336,120Z" style="fill:#f2e368"/><path d="M368,360l-72-72v56.25988a38,38,0,0,0,11.12994,26.87006L336,400V360Z" style="fill:#f2e368"/><path d="M307.12994,244.87006l49.74012-49.74012A38,38,0,0,0,368,168.25988V240a38,38,0,0,1-11.12994,26.87006l-49.74012,49.74011A38,38,0,0,0,296,343.48023V271.74012A38,38,0,0,1,307.12994,244.87006Z" style="fill:#eacf4d"/><path d="M184,120,80,224V167.74012a38,38,0,0,1,11.12994-26.87006L112,120Z" style="fill:#f2e368"/><path d="M80,360l72-72v56.25988a38,38,0,0,1-11.12994,26.87006L112,400V360Z" style="fill:#f2e368"/><path d="M140.87006,244.87006,91.12994,195.12994A38,38,0,0,1,80,168.25988V240a38,38,0,0,0,11.12994,26.87006l49.74012,49.74011A38,38,0,0,1,152,343.48023V271.74012A38,38,0,0,0,140.87006,244.87006Z" style="fill:#eacf4d"/><path d="M150.06,105.93994A47.81279,47.81279,0,0,0,184,120H120a48,48,0,0,1,0-96h64a47.99837,47.99837,0,0,0-33.94,81.93994Z" style="fill:#e8be31"/><path d="M264,72v48H200V72a47.94823,47.94823,0,0,0-48-48h64a47.99756,47.99756,0,0,1,47.83,44C263.94,69.32007,264,70.6499,264,72Z" style="fill:#f2e368"/><path d="M264,72v48H200v-8h16a47.99756,47.99756,0,0,0,47.83-44C263.94,69.32007,264,70.6499,264,72Z" style="fill:#eacf4d"/><path d="M360,24h0a48,48,0,0,0-48,48V120H248V72a48,48,0,0,1,48-48Z" style="fill:#e8be31"/><path d="M440,72.00005a48,48,0,0,1-48,48h-64a48,48,0,0,0,48-47.99995V72a48,48,0,0,0-48-47.99995h64a48,48,0,0,1,48,48Z" style="fill:#f2e368"/><rect x="200" y="168" width="48" height="32" style="fill:#eacf4d"/><path d="M488,112H431.13849A55.96327,55.96327,0,0,0,392,16H296a55.82442,55.82442,0,0,0-39.971,16.831A55.90233,55.90233,0,0,0,216,16H120a55.96327,55.96327,0,0,0-39.13849,96H24a8.00008,8.00008,0,0,0-8,8v48a8.00008,8.00008,0,0,0,8,8H40V488a8.00008,8.00008,0,0,0,8,8H464a8.00008,8.00008,0,0,0,8-8V176h16a8.00008,8.00008,0,0,0,8-8V120A8.00008,8.00008,0,0,0,488,112ZM375.34216,160a45.647,45.647,0,0,0-12.8153-24.78711L355.314,128H416v32ZM112,352H99.31348l32.81634-32.81592,3.08356,3.0835A29.80266,29.80266,0,0,1,144,343.48047v.25976c0,.1753.01514.34693.02625.51954H144a29.801,29.801,0,0,1-8.78662,21.21289L120,380.68652V360A8.00008,8.00008,0,0,0,112,352Zm32-43.57324L96.78662,261.21289A29.801,29.801,0,0,1,88,240V203.31348l47.21338,47.21386A29.801,29.801,0,0,1,144,271.74023ZM96.78662,189.47266A29.80267,29.80267,0,0,1,88,168.25977V168c0-.08765-.01031-.17285-.01312-.25977H88a29.801,29.801,0,0,1,8.78662-21.21289L115.314,128H164.686L100,192.686ZM144,72a40.08,40.08,0,0,1,23.9776-36.66016A40.05292,40.05292,0,0,1,192,72v40h-8A40.04552,40.04552,0,0,1,144,72ZM344,35.3501A39.99353,39.99353,0,0,1,328,112h-8V72A40.05181,40.05181,0,0,1,344,35.3501ZM332.686,128l18.52734,18.52734A29.801,29.801,0,0,1,360,167.74023h.01312c-.00281.08692-.01312.17212-.01312.25977v.25977a29.80267,29.80267,0,0,1-8.78662,21.21289L348,192.686,283.314,128ZM312.78662,322.26758l3.08356-3.0835L348.68652,352H336a8.00008,8.00008,0,0,0-8,8v20.68652l-15.21338-15.21386A29.801,29.801,0,0,1,304,344.25977h-.02625c.01111-.17261.02625-.34424.02625-.51954v-.25976A29.80266,29.80266,0,0,1,312.78662,322.26758ZM304,308.42676V271.74023a29.801,29.801,0,0,1,8.78662-21.21289L360,203.31348V240a29.801,29.801,0,0,1-8.78662,21.21289ZM292.686,160H272V139.314ZM256,128v32H192V128Zm-80,11.314V160H155.314ZM240,176V480H208V176Zm16,0h52.686l28,28-35.2129,35.21289A45.69594,45.69594,0,0,0,288,271.74023v72c0,.1753.01514.34693.02625.51954H288a45.69594,45.69594,0,0,0,13.47314,32.52734l28.87012,28.87012A8.00038,8.00038,0,0,0,344,400V368h24a8.0001,8.0001,0,0,0,5.65674-13.65723l-46.47266-46.47265,35.34278-35.34278A45.69593,45.69593,0,0,0,376,240V176h16V480H256ZM432,72a40.04552,40.04552,0,0,1-40,40H367.13849a55.87609,55.87609,0,0,0,0-80H392A40.04552,40.04552,0,0,1,432,72ZM296,32h24.8457A55.8339,55.8339,0,0,0,304,72v40H256V72A40.04552,40.04552,0,0,1,296,32Zm-80,0a39.93616,39.93616,0,0,1,30.41266,14.02344A55.6376,55.6376,0,0,0,240,72v40H208V72a55.82355,55.82355,0,0,0-16.86151-40ZM80,72a40.04552,40.04552,0,0,1,40-40h24.82733a55.91569,55.91569,0,0,0,.03418,80H120A40.04552,40.04552,0,0,1,80,72ZM32,128H92.686l-7.2129,7.21289A45.647,45.647,0,0,0,72.65784,160H32Zm24,48H72v64a45.69593,45.69593,0,0,0,13.47314,32.52734l35.34278,35.34278L74.34326,354.34277A8.0001,8.0001,0,0,0,80,368h24v32a8.00018,8.00018,0,0,0,13.65674,5.65723l28.87012-28.87012A45.69594,45.69594,0,0,0,160,344.25977h-.02625c.01111-.17261.02625-.34424.02625-.51954v-72a45.69594,45.69594,0,0,0-13.47314-32.52734L111.314,204l28-28H192V480H56ZM456,480H408V176h48Zm24-320H432V128h48Z"/></svg>
