<svg id="Fill_out_line" height="512" viewBox="0 0 512 512" width="512" xmlns="http://www.w3.org/2000/svg" data-name="Fill out line"><path d="m24 248h384v240h-384z" fill="#3ea7ff"/><path d="m64 280h88v64h-88z" fill="#f2e368"/><circle cx="344" cy="408" fill="#fc7" r="32"/><circle cx="296" cy="408" fill="#eb352f" r="32"/><path d="m344 176a88 88 0 0 0 -88-88h-32v176h32a88 88 0 0 0 88-88z" fill="#fda725"/><circle cx="224" cy="176" fill="#fcb73f" r="88"/><path d="m488 120a88 88 0 0 0 -88-88h-32v176h32a88 88 0 0 0 88-88z" fill="#e0b82f"/><circle cx="368" cy="120" fill="#eacf4d" r="88"/><path d="m432 256a88 88 0 0 0 -88-88h-32v176h32a88 88 0 0 0 88-88z" fill="#e0b82f"/><circle cx="312" cy="256" fill="#eacf4d" r="88"/><path d="m400 480h-368v-224h104v-16h-112a8.00039 8.00039 0 0 0 -8 8v240a8.00039 8.00039 0 0 0 8 8h384a8.00039 8.00039 0 0 0 8-8v-136h-16z"/><path d="m152 272h-88a8.00039 8.00039 0 0 0 -8 8v64a8.00039 8.00039 0 0 0 8 8h88a8.00039 8.00039 0 0 0 8-8v-64a8.00039 8.00039 0 0 0 -8-8zm-48 16v16h-32v-16zm40 48h-72v-16h40a8.00039 8.00039 0 0 0 8-8v-24h24z"/><path d="m104 384h32v16h-32z"/><path d="m56 384h32v16h-32z"/><path d="m152 384h32v16h-32z"/><path d="m200 384h32v16h-32z"/><path d="m152 416h16v16h-16z"/><path d="m184 416h32v16h-32z"/><path d="m56 448h64v16h-64z"/><path d="m136 448h48v16h-48z"/><path d="m320 439.6416a40 40 0 1 0 0-63.97851 40 40 0 1 0 0 63.97851zm-48-31.98926a23.99259 23.99259 0 0 1 42-15.86234 8.001 8.001 0 0 0 12 0 24 24 0 1 1 0 31.72461 8.001 8.001 0 0 0 -12 0 23.9926 23.9926 0 0 1 -42-15.86231z"/><path d="m496 120a96.10874 96.10874 0 0 0 -96-96h-32a96.1471 96.1471 0 0 0 -88.53516 58.89136 96.14138 96.14138 0 0 0 -23.46484-2.89136h-32a95.99829 95.99829 0 0 0 -6.69873 191.7627 96.15046 96.15046 0 0 0 94.69873 80.2373h32a95.96684 95.96684 0 0 0 85.04517-140.49316 96.11408 96.11408 0 0 0 66.95483-91.50684zm-128-80a80.00477 80.00477 0 0 1 43.09253 147.40942 96.34576 96.34576 0 0 0 -28.7478-19.40942h17.65527a8.00039 8.00039 0 0 0 8-8v-40a8.00039 8.00039 0 0 0 -8-8h-56v-24h48v8h16v-16a8.00039 8.00039 0 0 0 -8-8h-24v-16h-16v16h-24a8.00039 8.00039 0 0 0 -8 8v40a8.00039 8.00039 0 0 0 8 8h56v24h-48v-8h-16v16h-16a96.44116 96.44116 0 0 0 -12.78247.853 80 80 0 0 1 68.78247-120.853zm-224 136a79.99 79.99 0 0 1 128.314-63.75317q-.308 3.83717-.314 7.75317a95.57864 95.57864 0 0 0 10.91846 44.50732 95.51962 95.51962 0 0 0 -19.43506 8.68555 7.99564 7.99564 0 0 0 -7.4834-5.19287h-56v-24h48v8h16v-16a8.00039 8.00039 0 0 0 -8-8h-24v-16h-16v16h-24a8.00039 8.00039 0 0 0 -8 8v40a8.00039 8.00039 0 0 0 8 8h56v.512a96.67576 96.67576 0 0 0 -19.113 23.488h-28.887v-8h-16v16a8.00039 8.00039 0 0 0 8 8h24v31.59912a80.11041 80.11041 0 0 1 -72-79.59912zm88 80a80 80 0 1 1 80 80 80.09041 80.09041 0 0 1 -80-80zm139.87549 74.981a95.87846 95.87846 0 0 0 0-149.96192 79.9922 79.9922 0 0 1 0 149.96192zm56.09131-136.01152a95.94221 95.94221 0 0 0 -.09131-149.95048 80.00841 80.00841 0 0 1 .09131 149.95044z"/><path d="m344 208h-24v-16h-16v16h-24a8.00039 8.00039 0 0 0 -8 8v40a8.00039 8.00039 0 0 0 8 8h56v24h-48v-8h-16v16a8.00039 8.00039 0 0 0 8 8h24v16h16v-16h24a8.00039 8.00039 0 0 0 8-8v-40a8.00039 8.00039 0 0 0 -8-8h-56v-24h48v8h16v-16a8.00039 8.00039 0 0 0 -8-8z"/></svg>