<?xml version="1.0"?>
<svg xmlns="http://www.w3.org/2000/svg" viewBox="0 0 512 512" width="512" height="512"><g id="Fill_out_line" data-name="Fill out line"><path d="M112,488H80a40,40,0,0,1-40-40V448a40,40,0,0,1,40-40h32Z" style="fill:#262d43"/><circle cx="112" cy="448" r="40" style="fill:#2f4054"/><path d="M328,488H296a40,40,0,0,1-40-40V448a40,40,0,0,1,40-40h32Z" style="fill:#262d43"/><path d="M208,488H176a40,40,0,0,1-40-40V408h72Z" style="fill:#262d43"/><path d="M392,392v56H24V416a72.97221,72.97221,0,0,1,.43994-8A72.00634,72.00634,0,0,1,96,344H344A47.99972,47.99972,0,0,1,392,392Z" style="fill:#e54042"/><path d="M72,392a15.97843,15.97843,0,0,1-16,16H24.43994a71.59,71.59,0,0,1,11.68994-32H56A15.99552,15.99552,0,0,1,72,392Z" style="fill:#efdd9b"/><path d="M112,376h32a16,16,0,0,1,16,16v0a16,16,0,0,1-16,16H112a0,0,0,0,1,0,0V376A0,0,0,0,1,112,376Z" transform="translate(272 784) rotate(-180)" style="fill:#efdd9b"/><path d="M167.99992,264h96.00016A79.99992,79.99992,0,0,1,344,343.99992V344a0,0,0,0,1,0,0H88a0,0,0,0,1,0,0v-.00008A79.99992,79.99992,0,0,1,167.99992,264Z" style="fill:#8bcde8"/><path d="M344,344H264V264a79.99531,79.99531,0,0,1,80,80Z" style="fill:#2d80b4"/><path d="M264,264v80H184A80.00361,80.00361,0,0,1,264,264Z" style="fill:#379fc4"/><path d="M408,456h.00008A79.99991,79.99991,0,0,0,488,376.00008v-.00017A87.99991,87.99991,0,0,0,400.00009,288h28A59.99994,59.99994,0,0,0,488,228.00006v-.00012A59.99994,59.99994,0,0,0,428.00006,168H424a16,16,0,0,1-16-16v0a16,16,0,0,1,16-16h8.00008A55.99994,55.99994,0,0,0,488,80.00006v-.00012A55.99994,55.99994,0,0,0,432.00006,24H168a40,40,0,0,0-40,40V64a40,40,0,0,0,40,40H296a16,16,0,0,1,16,16v0a16,16,0,0,1-16,16H272a32,32,0,0,0-32,32V168a32,32,0,0,0,32,32H400a24,24,0,0,1,24,24v.00045A23.99958,23.99958,0,0,1,400,248H400a39.99929,39.99929,0,0,0-40,39.99929V288a40,40,0,0,0,40,40h7.21c26.32214,0,48.34369,20.861,48.78316,47.17945A48.00024,48.00024,0,0,1,408,424H392v32Z" style="fill:#c5d5e1"/><circle cx="208" cy="448" r="40" style="fill:#2f4054"/><circle cx="328" cy="448" r="40" style="fill:#2f4054"/><circle cx="328" cy="448" r="8"/><circle cx="208" cy="448" r="8"/><path d="M351.68066,336.53986A88.11586,88.11586,0,0,0,264,256H168a88.11413,88.11413,0,0,0-87.76367,81.56757A80.1306,80.1306,0,0,0,16,416v32a8.00008,8.00008,0,0,0,8,8h8.67944A48.0686,48.0686,0,0,0,80,496h32a47.54853,47.54853,0,0,0,32.023-12.24146A47.80041,47.80041,0,0,0,176,496h32a48.06273,48.06273,0,0,0,44-28.84375A48.06273,48.06273,0,0,0,296,496h32a48.069,48.069,0,0,0,47.3208-40H392a8.00008,8.00008,0,0,0,8-8V392A56.07521,56.07521,0,0,0,351.68066,336.53986ZM335.54492,336H272V272.45514A72.12184,72.12184,0,0,1,335.54492,336ZM256,336H192.45508A72.1216,72.1216,0,0,1,256,272.45514Zm-88-64h45.4624a88.03125,88.03125,0,0,0-37.095,64H96.45508A72.095,72.095,0,0,1,168,272ZM56,384a8,8,0,1,1,0,16H34.02539a63.58675,63.58675,0,0,1,6.58472-16Zm-6.9873,72H64.67944A47.84482,47.84482,0,0,0,76.042,479.7464,32.07962,32.07962,0,0,1,49.0127,456Zm32,0h47.66674a47.63548,47.63548,0,0,0,5.33472,15.23A31.70429,31.70429,0,0,1,112,480,32.05723,32.05723,0,0,1,81.0127,456Zm64,0h15.66674a47.84384,47.84384,0,0,0,11.36206,23.74634A32.07927,32.07927,0,0,1,145.0127,456ZM208,480a32,32,0,1,1,32-32A32.03635,32.03635,0,0,1,208,480Zm57.0127-24h15.6665a47.84831,47.84831,0,0,0,11.3623,23.74634A32.079,32.079,0,0,1,265.0127,456ZM328,480a32,32,0,1,1,32-32A32.03635,32.03635,0,0,1,328,480Zm56-40h-8.6792a47.99073,47.99073,0,0,0-94.6416,0H255.32056a47.99044,47.99044,0,0,0-94.64112,0H32V416H56a24,24,0,0,0,0-48H53.7356A63.7194,63.7194,0,0,1,96,352H272v48h16V352h56a40.04552,40.04552,0,0,1,40,40Z"/><path d="M160,368H128a24,24,0,0,0,0,48h32a8.00008,8.00008,0,0,0,8-8V376A8.00008,8.00008,0,0,0,160,368Zm-8,32H128a8,8,0,0,1,0-16h24Z"/><path d="M496,228a68.07728,68.07728,0,0,0-68-68h-4a8,8,0,0,1,0-16h8a64,64,0,0,0,0-128H168a48,48,0,0,0,0,96H296a8,8,0,0,1,0,16H272a40,40,0,0,0,0,80H400a16,16,0,1,1,0,32h-.001A48,48,0,0,0,400,336h7.21c22.12695,0,40.42285,17.63574,40.78418,39.31348A40.00028,40.00028,0,0,1,408,416v16a56.00018,56.00018,0,0,0,55.99219-56.95361C463.48535,344.69336,438.0127,320,407.21,320H400a32,32,0,1,1,0-64,32,32,0,0,0,0-64H272a24,24,0,0,1,0-48h24a24,24,0,0,0,0-48H168a32,32,0,0,1,0-64H432a48,48,0,0,1,0,96h-8a24,24,0,0,0,0,48h4a52,52,0,0,1,0,104H400a8,8,0,0,0,0,16,80.09041,80.09041,0,0,1,80,80,72.08124,72.08124,0,0,1-72,72v16a88.09957,88.09957,0,0,0,88-88,96.05821,96.05821,0,0,0-47.87012-83.041A68.122,68.122,0,0,0,496,228Z"/></g></svg>
