<svg id="Layer_3" enable-background="new 0 0 64 64" height="512" viewBox="0 0 64 64" width="512" xmlns="http://www.w3.org/2000/svg"><g><path d="m2 6h52v42h-52z" fill="#c7e2fb"/><path d="m2 6v33.729c1.804.172 3.637.271 5.5.271 24.28 0 44.114-15.048 45.427-34z" fill="#ebf7fe"/><path d="m2 6h52v10h-52z" fill="#669e54"/><path d="m9 2h6v8h-6z" fill="#ebf7fe"/><path d="m41 2h6v8h-6z" fill="#ebf7fe"/><circle cx="48" cy="48" fill="#3c98f4" r="14"/><path d="m48 40c-4.418 0-8 3.582-8 8h8z" fill="#e5ebf0"/><g><path d="m14 24h-9v2h7l-.6.8c-2.838 3.783-4.4 8.471-4.4 13.2h2c0-4.299 1.421-8.561 4-12l1.8-2.4c.228-.303.264-.708.095-1.047-.17-.339-.516-.553-.895-.553z"/><path d="m19 24h-1c-.553 0-1 .448-1 1v14c0 .552.447 1 1 1h1c4.411 0 8-3.589 8-8s-3.589-8-8-8zm0 14v-12c3.309 0 6 2.691 6 6s-2.691 6-6 6z"/><path d="m55 34.744v-28.744c0-.552-.447-1-1-1h-6v-3c0-.552-.447-1-1-1h-6c-.553 0-1 .448-1 1v3h-24v-3c0-.552-.447-1-1-1h-6c-.553 0-1 .448-1 1v3h-6c-.553 0-1 .448-1 1v42c0 .552.447 1 1 1h31.051c.518 7.805 7.015 14 14.949 14 8.271 0 15-6.729 15-15 0-5.743-3.248-10.737-8-13.256zm-13-31.744h4v6h-4zm-32 0h4v6h-4zm-2 4v3c0 .552.447 1 1 1h6c.553 0 1-.448 1-1v-3h24v3c0 .552.447 1 1 1h6c.553 0 1-.448 1-1v-3h5v8h-50v-8zm-5 10h50v16.875c-1.567-.556-3.245-.875-5-.875-.338 0-.668.029-1 .051v-.152c2.279-.465 4-2.484 4-4.899v-4h-2v4c0 1.654-1.346 3-3 3s-3-1.346-3-3v-4h-2v4c0 2.414 1.721 4.434 4 4.899v.403c-2.22.452-4.253 1.409-6 2.726v-7.028c0-2.757-2.243-5-5-5s-5 2.243-5 5v11h2v-5h6v2.836c-2.261 2.445-3.715 5.636-3.949 9.164h-30.051zm34 16h-6v-4c0-1.654 1.346-3 3-3s3 1.346 3 3zm11 2c3.225 0 6.173 1.187 8.447 3.139l-1.154 1.154 1.414 1.414 1.154-1.154c1.747 2.036 2.871 4.615 3.088 7.447h-1.949v2h1.949c-.217 2.833-1.341 5.411-3.088 7.447l-1.154-1.154-1.414 1.414 1.154 1.154c-2.036 1.747-4.615 2.871-7.447 3.088v-1.949h-2v1.949c-2.833-.217-5.411-1.341-7.447-3.088l1.154-1.154-1.414-1.414-1.154 1.154c-1.952-2.274-3.139-5.222-3.139-8.447 0-7.168 5.832-13 13-13z"/><path d="m49 48v-11h-2v2.059c-4.165.463-7.478 3.777-7.941 7.941h-2.059v2h11c.553 0 1-.448 1-1zm-7.92-1c.441-3.059 2.861-5.479 5.92-5.92v5.92z"/></g></g></svg>