<svg height="512" viewBox="0 0 512 512" width="512" xmlns="http://www.w3.org/2000/svg"><g id="Fill_out_line" data-name="Fill out line"><path d="m255.99983 56h.00034a167.99983 167.99983 0 0 1 167.99983 167.99983v192.00017a0 0 0 0 1 0 0h-336a0 0 0 0 1 0 0v-192.00017a167.99983 167.99983 0 0 1 167.99983-167.99983z" fill="#e94042"/><path d="m56 416h400v72h-400z" fill="#2f4054"/><path d="m335.99994 152h56.00006a0 0 0 0 1 0 0v176a0 0 0 0 1 0 0h-56.00006a55.99994 55.99994 0 0 1 -55.99994-55.99994v-64.00012a55.99994 55.99994 0 0 1 55.99994-55.99994z" fill="#c9d9e5" transform="matrix(-1 0 0 -1 672 480)"/><path d="m335.99994 152h24.00006a0 0 0 0 1 0 0v176a0 0 0 0 1 0 0h-24.00006a55.99994 55.99994 0 0 1 -55.99994-55.99994v-64.00012a55.99994 55.99994 0 0 1 55.99994-55.99994z" fill="#abb7c1" transform="matrix(-1 0 0 -1 640 480)"/><path d="m255.99994 104h.00011a55.99994 55.99994 0 0 1 55.99995 55.99994v256.00006a0 0 0 0 1 0 0h-112a0 0 0 0 1 0 0v-256.00006a55.99994 55.99994 0 0 1 55.99994-55.99994z" fill="#d6393b"/><path d="m176 152h32.00006a55.99994 55.99994 0 0 1 55.99994 55.99994v64.00011a55.99994 55.99994 0 0 1 -55.99994 55.99995h-32.00006a0 0 0 0 1 0 0v-176a0 0 0 0 1 0 0z" fill="#abb7c1"/><path d="m232 208v64a56 56 0 0 1 -112 0v-64a56 56 0 1 1 112 0z" fill="#c9d9e5"/><path d="m232 208v64a40 40 0 1 1 0-64z" fill="#8fd1ec"/><path d="m432 248h56v-16h-56v-8a175.60923 175.60923 0 0 0 -6.09424-45.93823l64.29248-18.36939-4.39648-15.38476-64.77735 18.50781c-24.91162-66.97314-89.48291-114.81543-165.02441-114.81543a176.01972 176.01972 0 0 0 -159.23438 100.9375l14.46876 6.832a160.01963 160.01963 0 0 1 144.76562-91.7695c68.24023 0 126.62842 42.94678 149.584 103.227l-3.78222 1.08057 4.39648 15.38476 4.32129-1.23462a159.66323 159.66323 0 0 1 5.48045 41.54229v8h-8v16h8v51.10791l-5.80176-1.65771-4.39648 15.3848 10.19824 2.91378v92.25122h-96v-72h16a64.07207 64.07207 0 0 0 64-64v-64a64.07207 64.07207 0 0 0 -64-64h-18.02539a64.00005 64.00005 0 0 0 -123.93555 0h-18.03906a63.51887 63.51887 0 0 0 -45.71387 19.21l11.42774 11.19727a47.99837 47.99837 0 0 1 80.21213 19.64253 47.99991 47.99991 0 1 0 0 91.90064 47.99757 47.99757 0 0 1 -79.51783 20.33569l-11.19917 11.42774a63.63837 63.63837 0 0 0 44.791 18.28613h16v72h-96v-72h-16v72h-24a8.00039 8.00039 0 0 0 -8 8v72a8.00039 8.00039 0 0 0 8 8h400a8.00039 8.00039 0 0 0 8-8v-72a8.00039 8.00039 0 0 0 -8-8h-24v-87.67969l53.80176 15.37207 4.39648-15.38476-58.19824-16.62842zm-80-40v64a48.27582 48.27582 0 0 1 -32 45.25122v-154.50244a48.27582 48.27582 0 0 1 32 45.25122zm32 0v64a48.08256 48.08256 0 0 1 -36.18213 46.52417 64.09165 64.09165 0 0 0 20.18213-46.52417v-64a64.09165 64.09165 0 0 0 -20.18213-46.52417 48.08256 48.08256 0 0 1 36.18213 46.52417zm-208 32a32.03667 32.03667 0 0 1 32-32 31.69611 31.69611 0 0 1 16 4.30688v55.387a31.69961 31.69961 0 0 1 -16 4.30612 32.03667 32.03667 0 0 1 -32-32zm64 32v-64a63.81344 63.81344 0 0 0 -20.09961-46.50513 48.08379 48.08379 0 0 1 36.09961 46.50513v64a48.08379 48.08379 0 0 1 -36.09961 46.50513 63.81344 63.81344 0 0 0 20.09961-46.50513zm-32 64a64.07207 64.07207 0 0 0 64-64v-64a64.07056 64.07056 0 0 0 -61.27661-63.93091 47.99848 47.99848 0 0 1 93.27661 15.93091v248h-96zm240 144h-384v-56h384z"/><path d="m80 264h16v24h-16z"/><path d="m83.18848 190.48535a177.10518 177.10518 0 0 0 -2.99219 25.13965l15.98242.75a160.97725 160.97725 0 0 1 2.7207-22.86035z"/><path d="m112.64844 198.86621a64.58 64.58 0 0 0 -.64844 9.13379v16h16v-16a48.7006 48.7006 0 0 1 .48633-6.86621z"/><path d="m128.48633 278.86621a48.72138 48.72138 0 0 1 -.48633-6.86621v-16h-16v16a64.60055 64.60055 0 0 0 .64844 9.13379z"/><path d="m21.759 304h116.482v16.001h-116.482z" transform="matrix(.962 -.275 .275 .962 -82.635 33.982)"/><path d="m72 109.759h16.001v116.482h-16.001z" transform="matrix(.275 -.962 .962 .275 -103.514 198.769)"/><path d="m24 232h104v16h-104z"/><path d="m248 16h16v24h-16z"/><path d="m172.793 29.91h15.999v25.049h-15.999z" transform="matrix(.924 -.383 .383 .924 -2.477 72.416)"/><path d="m106.946 67.466h16.001v30.961h-16.001z" transform="matrix(.707 -.707 .707 .707 -24.985 105.574)"/><path d="m381.573 74.946h30.961v16.001h-30.961z" transform="matrix(.707 -.707 .707 .707 57.642 305.054)"/><path d="m318.682 34.435h25.049v15.999h-25.049z" transform="matrix(.383 -.924 .924 .383 165.248 332.187)"/></g></svg>