<?xml version="1.0" encoding="iso-8859-1"?>
<!-- Generator: Adobe Illustrator 19.0.0, SVG Export Plug-In . SVG Version: 6.00 Build 0)  -->
<svg version="1.1" id="Capa_1" xmlns="http://www.w3.org/2000/svg" xmlns:xlink="http://www.w3.org/1999/xlink" x="0px" y="0px"
	 viewBox="0 0 512.024 512.024" style="enable-background:new 0 0 512.024 512.024;" xml:space="preserve">
<g transform="translate(-1)">
	<path style="fill:#B19046;" d="M193.214,506.654c-4.382,1.785-9.311,1.657-13.594-0.353c-14.212-6.709-42.814-25.688-96.75-78.477
		c-53.937-52.877-73.357-80.772-80.243-94.72c-1.71-3.451-2.087-7.411-1.059-11.123l83.884,24.188
		c11.652,7.062,21.76,19.399,34.207,23.724l22.069,12.69c3.884,15.183,18.185,33.037,26.483,46.897L193.214,506.654z"/>
	<path style="fill:#71C285;" d="M276.256,49.298l32.23-31.541c16.876-17.391,44.505-18.264,62.445-1.971
		c4.961,4.838,8.568,10.891,10.463,17.556c17.935-8.969,39.557-5.828,54.198,7.874c8.765,8.59,13.513,20.47,13.081,32.735
		c11.908-0.866,23.624,3.356,32.242,11.619c7.987,8.296,12.279,19.47,11.9,30.98s-5.398,22.377-13.914,30.13
		c-0.798,0.823-1.657,1.585-2.57,2.279c9.964-1.175,19.928,2.186,27.146,9.155c6.395,6.634,9.833,15.575,9.529,24.785
		c-0.304,9.21-4.322,17.905-11.141,24.103l-32.23,31.541L276.256,49.298z"/>
	<path style="fill:#802F34;" d="M416.972,178.277c13.528-2.775,24.422-12.787,28.326-26.034s0.18-27.567-9.682-37.234
		c-13.481-13.047-34.317-14.711-49.698-3.969l-31.777,34.308L416.972,178.277z"/>
	<path style="fill:#CC4B4C;" d="M375.652,145.056c14.406-2.955,26.006-13.616,30.163-27.722s0.192-29.354-10.309-39.649
		c-14.355-13.893-36.543-15.665-52.921-4.226L331.74,83.793L375.652,145.056z"/>
	<path style="fill:#F3D55B;" d="M375.68,145.076c-0.441-0.088-227.332,216.357-246.378,241.964l-6.268,1.412
		c-12.634-4.451-24.765-10.221-36.192-17.213L1.567,321.981c0.858-3.385,2.629-6.469,5.12-8.916L276.282,49.297l32.221-31.514
		l33.81,55.261l0.265,0.441l19.421,31.868c1.853,3.001,3.619,6.091,5.297,9.269c1.677,3.09,3.266,6.268,4.679,9.446
		c0.794,1.854,1.589,3.619,2.295,5.385C375.363,134.584,375.838,139.83,375.68,145.076L375.68,145.076z"/>
	<path style="fill:#E4C05C;" d="M500.149,208.635l-30.543,29.926L200.1,502.329c-1.955,1.924-4.304,3.4-6.885,4.326l-45.639-75.829
		c-8.174-13.636-14.329-28.384-18.273-43.785c-16.331-63.117,4.149-134.974,56.673-186.35
		c31.368-30.867,71.513-51.279,114.935-58.439c20.176-3.222,40.735-3.222,60.91,0c3.178,0.53,6.356,1.148,9.446,1.854
		c0.971,0.177,2.03,0.353,3.001,0.618c16.445,3.774,32.241,9.962,46.874,18.361l14.388,8.298L500.149,208.635z"/>
	<g>
		<path style="fill:#F9EAB0;" d="M411.62,253.677c-2.308,0.004-4.525-0.9-6.172-2.517l-12.892-12.616
			c-3.428-3.419-3.462-8.962-0.077-12.423s8.927-3.549,12.421-0.198l12.892,12.616c2.565,2.509,3.356,6.321,2.001,9.643
			C418.438,251.505,415.208,253.677,411.62,253.677L411.62,253.677z"/>
		<path style="fill:#F9EAB0;" d="M347.163,316.759c-2.308,0.004-4.525-0.9-6.172-2.517l-12.892-12.616
			c-3.43-3.419-3.466-8.963-0.079-12.425c3.386-3.462,8.93-3.549,12.424-0.196l12.892,12.616c2.565,2.509,3.356,6.321,2.001,9.643
			S350.751,316.759,347.163,316.759L347.163,316.759z"/>
		<path style="fill:#F9EAB0;" d="M353.607,259.988c-2.308,0.004-4.525-0.9-6.172-2.517l-12.892-12.616
			c-3.43-3.419-3.466-8.963-0.079-12.425c3.386-3.462,8.93-3.549,12.424-0.196l12.892,12.616c2.565,2.509,3.356,6.321,2.001,9.643
			C360.425,257.815,357.195,259.987,353.607,259.988L353.607,259.988z"/>
		<path style="fill:#F9EAB0;" d="M295.594,367.225c-2.308,0.004-4.525-0.9-6.172-2.517l-12.892-12.616
			c-3.43-3.419-3.466-8.963-0.079-12.425c3.386-3.462,8.93-3.549,12.424-0.196l12.892,12.616c2.565,2.509,3.356,6.321,2.001,9.643
			S299.182,367.224,295.594,367.225L295.594,367.225z"/>
		<path style="fill:#F9EAB0;" d="M231.132,430.307c-2.31,0.004-4.529-0.902-6.177-2.522l-12.888-12.616
			c-2.265-2.204-3.178-5.451-2.395-8.513c0.783-3.062,3.143-5.471,6.188-6.317c3.045-0.846,6.31,0,8.56,2.218l12.888,12.616
			c2.562,2.51,3.351,6.321,1.996,9.642C237.949,428.136,234.719,430.306,231.132,430.307L231.132,430.307z"/>
		<path style="fill:#F9EAB0;" d="M237.581,373.531c-2.308,0.004-4.525-0.9-6.172-2.517l-12.892-12.616
			c-3.43-3.419-3.465-8.963-0.079-12.425s8.93-3.549,12.424-0.196l12.892,12.616c2.565,2.509,3.356,6.321,2.001,9.643
			C244.4,371.359,241.169,373.53,237.581,373.531L237.581,373.531z"/>
	</g>
</g>
<g>
</g>
<g>
</g>
<g>
</g>
<g>
</g>
<g>
</g>
<g>
</g>
<g>
</g>
<g>
</g>
<g>
</g>
<g>
</g>
<g>
</g>
<g>
</g>
<g>
</g>
<g>
</g>
<g>
</g>
</svg>
