<svg height="512pt" viewBox="0 0 512 512" width="512pt" xmlns="http://www.w3.org/2000/svg"><path d="m68.265625 34.132812h375.46875c18.851563 0 34.132813 15.28125 34.132813 34.132813v375.46875c0 18.851563-15.28125 34.132813-34.132813 34.132813h-375.46875c-18.851563 0-34.132813-15.28125-34.132813-34.132813v-375.46875c0-18.851563 15.28125-34.132813 34.132813-34.132813zm0 0" fill="#f5efca"/><path d="m315.136719 180.136719v.085937c.039062 2.28125-.046875 4.558594-.257813 6.828125l-4.265625 38.570313c-12.027343-18.46875-32.574219-29.609375-54.613281-29.609375s-42.585938 11.140625-54.613281 29.609375l-4.179688-38.570313c-.242187-2.269531-.355469-4.546875-.34375-6.828125-.53125-21.464844 10.613281-41.53125 29.113281-52.429687 18.5-10.898438 41.453126-10.914063 59.972657-.042969 18.515625 10.871094 29.6875 30.921875 29.1875 52.386719zm0 0" fill="#4482c3"/><path d="m201.386719 225.621094v.085937c-7.175781 10.726563-11.144531 23.277344-11.433594 36.179688l-25.515625 28.757812c-1.464844 1.683594-2.832031 3.453125-4.097656 5.292969-31.367188-10.941406-48.242188-44.949219-37.972656-76.546875 4.539062-15.171875 14.996093-27.878906 29.011718-35.246094 14.019532-7.371093 30.414063-8.785156 45.484375-3.921875-.011719 2.28125.101563 4.558594.34375 6.828125zm0 0" fill="#285680"/><path d="m278.273438 328.019531-18.605469 33.792969c-1.089844 1.988281-2.316407 3.898438-3.667969 5.71875-8.976562 12.964844-22.84375 21.71875-38.410156 24.246094s-31.488282-1.390625-44.105469-10.847656c-26.515625-20.195313-32.320313-57.734376-13.144531-84.992188 1.265625-1.839844 2.632812-3.609375 4.097656-5.292969l25.515625-28.757812c-.070313.679687-.101563 1.367187-.085937 2.050781-.257813 17.789062 6.566406 34.953125 18.972656 47.710938 12.402344 12.753906 29.367187 20.058593 47.160156 20.296874 7.597656.019532 15.136719-1.3125 22.273438-3.925781zm0 0" fill="#4482c3"/><path d="m338.601562 380.84375c-12.621093 9.472656-28.550781 13.402344-44.128906 10.894531-15.578125-2.511719-29.46875-11.25-38.472656-24.207031 1.351562-1.820312 2.578125-3.730469 3.667969-5.71875l18.605469-33.792969h.082031c26.539062-10.128906 43.992187-35.679687 43.777343-64.082031.015626-.628906-.015624-1.253906-.085937-1.878906l25.515625 28.585937c1.539062 1.652344 2.910156 3.453125 4.097656 5.375h.082032c19.097656 27.21875 13.296874 64.660157-13.140626 84.824219zm0 0" fill="#285680"/><path d="m351.742188 296.019531h-.082032c-1.1875-1.921875-2.558594-3.722656-4.097656-5.375l-25.515625-28.585937v-.085938c-.304687-12.925781-4.269531-25.5-11.433594-36.265625v-.085937l4.265625-38.570313c.210938-2.269531.296875-4.546875.257813-6.828125v-.085937c15.082031-4.84375 31.480469-3.414063 45.496093 3.972656 14.015626 7.382813 24.46875 20.101563 29 35.28125 10.203126 31.589844-6.59375 65.5625-37.890624 76.628906zm0 0" fill="#35495e"/><g fill="#fac176"><path d="m59.734375 93.867188h-51.199219c-4.714844 0-8.535156-3.820313-8.535156-8.535157 0-4.710937 3.820312-8.53125 8.535156-8.53125h51.199219c4.710937 0 8.53125 3.820313 8.53125 8.53125 0 4.714844-3.820313 8.535157-8.53125 8.535157zm0 0"/><path d="m59.734375 162.132812h-51.199219c-4.714844 0-8.535156-3.820312-8.535156-8.53125 0-4.714843 3.820312-8.535156 8.535156-8.535156h51.199219c4.710937 0 8.53125 3.820313 8.53125 8.535156 0 4.710938-3.820313 8.53125-8.53125 8.53125zm0 0"/><path d="m59.734375 230.398438h-51.199219c-4.714844 0-8.535156-3.820313-8.535156-8.53125 0-4.714844 3.820312-8.535157 8.535156-8.535157h51.199219c4.710937 0 8.53125 3.820313 8.53125 8.535157 0 4.710937-3.820313 8.53125-8.53125 8.53125zm0 0"/><path d="m59.734375 298.667969h-51.199219c-4.714844 0-8.535156-3.820313-8.535156-8.535157 0-4.710937 3.820312-8.53125 8.535156-8.53125h51.199219c4.710937 0 8.53125 3.820313 8.53125 8.53125 0 4.714844-3.820313 8.535157-8.53125 8.535157zm0 0"/><path d="m59.734375 366.933594h-51.199219c-4.714844 0-8.535156-3.820313-8.535156-8.535156 0-4.710938 3.820312-8.53125 8.535156-8.53125h51.199219c4.710937 0 8.53125 3.820312 8.53125 8.53125 0 4.714843-3.820313 8.535156-8.53125 8.535156zm0 0"/><path d="m59.734375 435.199219h-51.199219c-4.714844 0-8.535156-3.820313-8.535156-8.53125 0-4.714844 3.820312-8.535157 8.535156-8.535157h51.199219c4.710937 0 8.53125 3.820313 8.53125 8.535157 0 4.710937-3.820313 8.53125-8.53125 8.53125zm0 0"/><path d="m503.464844 93.867188h-51.199219c-4.710937 0-8.53125-3.820313-8.53125-8.535157 0-4.710937 3.820313-8.53125 8.53125-8.53125h51.199219c4.714844 0 8.535156 3.820313 8.535156 8.53125 0 4.714844-3.820312 8.535157-8.535156 8.535157zm0 0"/><path d="m503.464844 162.132812h-51.199219c-4.710937 0-8.53125-3.820312-8.53125-8.53125 0-4.714843 3.820313-8.535156 8.53125-8.535156h51.199219c4.714844 0 8.535156 3.820313 8.535156 8.535156 0 4.710938-3.820312 8.53125-8.535156 8.53125zm0 0"/><path d="m503.464844 230.398438h-51.199219c-4.710937 0-8.53125-3.820313-8.53125-8.53125 0-4.714844 3.820313-8.535157 8.53125-8.535157h51.199219c4.714844 0 8.535156 3.820313 8.535156 8.535157 0 4.710937-3.820312 8.53125-8.535156 8.53125zm0 0"/><path d="m503.464844 298.667969h-51.199219c-4.710937 0-8.53125-3.820313-8.53125-8.535157 0-4.710937 3.820313-8.53125 8.53125-8.53125h51.199219c4.714844 0 8.535156 3.820313 8.535156 8.53125 0 4.714844-3.820312 8.535157-8.535156 8.535157zm0 0"/><path d="m503.464844 366.933594h-51.199219c-4.710937 0-8.53125-3.820313-8.53125-8.535156 0-4.710938 3.820313-8.53125 8.53125-8.53125h51.199219c4.714844 0 8.535156 3.820312 8.535156 8.53125 0 4.714843-3.820312 8.535156-8.535156 8.535156zm0 0"/><path d="m503.464844 435.199219h-51.199219c-4.710937 0-8.53125-3.820313-8.53125-8.53125 0-4.714844 3.820313-8.535157 8.53125-8.535157h51.199219c4.714844 0 8.535156 3.820313 8.535156 8.535157 0 4.710937-3.820312 8.53125-8.535156 8.53125zm0 0"/><path d="m426.667969 68.265625c-4.714844 0-8.535157-3.820313-8.535157-8.53125v-51.199219c0-4.714844 3.820313-8.535156 8.535157-8.535156 4.710937 0 8.53125 3.820312 8.53125 8.535156v51.199219c0 4.710937-3.820313 8.53125-8.53125 8.53125zm0 0"/><path d="m358.398438 68.265625c-4.710938 0-8.53125-3.820313-8.53125-8.53125v-51.199219c0-4.714844 3.820312-8.535156 8.53125-8.535156 4.714843 0 8.535156 3.820312 8.535156 8.535156v51.199219c0 4.710937-3.820313 8.53125-8.535156 8.53125zm0 0"/><path d="m290.132812 68.265625c-4.710937 0-8.53125-3.820313-8.53125-8.53125v-51.199219c0-4.714844 3.820313-8.535156 8.53125-8.535156 4.714844 0 8.535157 3.820312 8.535157 8.535156v51.199219c0 4.710937-3.820313 8.53125-8.535157 8.53125zm0 0"/><path d="m221.867188 68.265625c-4.714844 0-8.535157-3.820313-8.535157-8.53125v-51.199219c0-4.714844 3.820313-8.535156 8.535157-8.535156 4.710937 0 8.53125 3.820312 8.53125 8.535156v51.199219c0 4.710937-3.820313 8.53125-8.53125 8.53125zm0 0"/><path d="m153.601562 68.265625c-4.714843 0-8.535156-3.820313-8.535156-8.53125v-51.199219c0-4.714844 3.820313-8.535156 8.535156-8.535156 4.710938 0 8.53125 3.820312 8.53125 8.535156v51.199219c0 4.710937-3.820312 8.53125-8.53125 8.53125zm0 0"/><path d="m85.332031 68.265625c-4.710937 0-8.53125-3.820313-8.53125-8.53125v-51.199219c0-4.714844 3.820313-8.535156 8.53125-8.535156 4.714844 0 8.535157 3.820312 8.535157 8.535156v51.199219c0 4.710937-3.820313 8.53125-8.535157 8.53125zm0 0"/><path d="m426.667969 512c-4.714844 0-8.535157-3.820312-8.535157-8.535156v-51.199219c0-4.710937 3.820313-8.53125 8.535157-8.53125 4.710937 0 8.53125 3.820313 8.53125 8.53125v51.199219c0 4.714844-3.820313 8.535156-8.53125 8.535156zm0 0"/><path d="m358.398438 512c-4.710938 0-8.53125-3.820312-8.53125-8.535156v-51.199219c0-4.710937 3.820312-8.53125 8.53125-8.53125 4.714843 0 8.535156 3.820313 8.535156 8.53125v51.199219c0 4.714844-3.820313 8.535156-8.535156 8.535156zm0 0"/><path d="m290.132812 512c-4.710937 0-8.53125-3.820312-8.53125-8.535156v-51.199219c0-4.710937 3.820313-8.53125 8.53125-8.53125 4.714844 0 8.535157 3.820313 8.535157 8.53125v51.199219c0 4.714844-3.820313 8.535156-8.535157 8.535156zm0 0"/><path d="m221.867188 512c-4.714844 0-8.535157-3.820312-8.535157-8.535156v-51.199219c0-4.710937 3.820313-8.53125 8.535157-8.53125 4.710937 0 8.53125 3.820313 8.53125 8.53125v51.199219c0 4.714844-3.820313 8.535156-8.53125 8.535156zm0 0"/><path d="m153.601562 512c-4.714843 0-8.535156-3.820312-8.535156-8.535156v-51.199219c0-4.710937 3.820313-8.53125 8.535156-8.53125 4.710938 0 8.53125 3.820313 8.53125 8.53125v51.199219c0 4.714844-3.820312 8.535156-8.53125 8.535156zm0 0"/><path d="m85.332031 512c-4.710937 0-8.53125-3.820312-8.53125-8.535156v-51.199219c0-4.710937 3.820313-8.53125 8.53125-8.53125 4.714844 0 8.535157 3.820313 8.535157 8.53125v51.199219c0 4.714844-3.820313 8.535156-8.535157 8.535156zm0 0"/></g><path d="m322.132812 263.9375c.214844 28.402344-17.238281 53.953125-43.777343 64.082031h-.082031c-7.136719 2.613281-14.675782 3.945313-22.273438 3.925781-17.792969-.238281-34.757812-7.542968-47.160156-20.296874-12.40625-12.757813-19.230469-29.921876-18.972656-47.710938-.015626-.683594.015624-1.371094.085937-2.050781.289063-12.902344 4.257813-25.453125 11.433594-36.179688v-.085937c12.027343-18.46875 32.574219-29.609375 54.613281-29.609375s42.585938 11.140625 54.613281 29.609375v.085937c7.164063 10.765625 11.128907 23.339844 11.433594 36.265625v.085938c.070313.625.101563 1.25.085937 1.878906zm0 0" fill="#f0c419"/><path d="m264.679688 230.433594c0-4.710938-3.820313-8.53125-8.535157-8.53125-4.710937 0-8.53125 3.820312-8.53125 8.53125 0 4.714844 3.820313 8.535156 8.53125 8.535156 4.714844 0 8.535157-3.820312 8.535157-8.535156zm0 0" fill="#f29c1f"/><path d="m230.398438 264.566406c0 4.714844-3.820313 8.535156-8.53125 8.535156-4.714844 0-8.535157-3.820312-8.535157-8.535156 0-4.710937 3.820313-8.53125 8.535157-8.53125 4.710937 0 8.53125 3.820313 8.53125 8.53125zm0 0" fill="#f29c1f"/><path d="m298.667969 264.566406c0 4.714844-3.820313 8.535156-8.535157 8.535156-4.710937 0-8.53125-3.820312-8.53125-8.535156 0-4.710937 3.820313-8.53125 8.53125-8.53125 4.714844 0 8.535157 3.820313 8.535157 8.53125zm0 0" fill="#f29c1f"/><path d="m264.535156 298.699219c0 4.714843-3.824218 8.535156-8.535156 8.535156s-8.535156-3.820313-8.535156-8.535156c0-4.710938 3.824218-8.53125 8.535156-8.53125s8.535156 3.820312 8.535156 8.53125zm0 0" fill="#f29c1f"/><path d="m264.679688 264.566406c0-4.710937-3.820313-8.53125-8.535157-8.53125-4.710937 0-8.53125 3.820313-8.53125 8.53125 0 4.714844 3.820313 8.535156 8.53125 8.535156 4.714844 0 8.535157-3.820312 8.535157-8.535156zm0 0" fill="#f29c1f"/></svg>