<svg id="Fill_out_line" height="512" viewBox="0 0 512 512" width="512" xmlns="http://www.w3.org/2000/svg" data-name="Fill out line"><path d="m288 328v160h-192v-168l88-64z" fill="#fff1d8"/><path d="m288 328h143.5v160h-143.5z" fill="#eedbc4"/><path d="m128 392h48v96h-48z" fill="#fc7"/><path d="m320 392h80v48h-80z" fill="#fc7"/><path d="m48 360 136-96 136 96 24-32-160-112-160 112z" fill="#fcb73f"/><path d="m488 328h-144l-160-112h152z" fill="#fc7"/><path d="m488 328-16 32h-152l24-32z" fill="#fda725"/><path d="m208 392h48v48h-48z" fill="#fc7"/><path d="m352 216h64v72h-64z" fill="#87633e"/><path d="m352 216v72l-48-32v-40z" fill="#bc8d5d"/><path d="m312 183.862h-208v48.138l-48-48.138h-32v-159.862h288z" fill="#3ea7ff"/><path d="m56 56h224v95.862h-224z" fill="#a0cc00"/><g fill="#85b200"><path d="m104 152a48 48 0 0 0 -48-48v48z"/><path d="m56 104a48 48 0 0 0 48-48h-48z"/><path d="m232 56a48 48 0 0 0 48 48v-48z"/><path d="m280 104a48 48 0 0 0 -48 48h48z"/></g><path d="m24 191.86133h28.67969l45.65531 45.78711a8.00009 8.00009 0 0 0 13.665-5.64844v-40.13867h200a8.00008 8.00008 0 0 0 8-8v-159.86133a8.00008 8.00008 0 0 0 -8-8h-288a8.00008 8.00008 0 0 0 -8 8v159.86133a8.00008 8.00008 0 0 0 8 8zm8-159.86133h272v143.86133h-200a8.00008 8.00008 0 0 0 -8 8v28.78567l-34.335-34.43411a7.99958 7.99958 0 0 0 -5.665-2.35156h-24z"/><path d="m104 160a8.02393 8.02393 0 0 0 1.45581-.13867h22.54419v-16h-16.59814a56.11044 56.11044 0 0 0 -26.59205-39.86133 56.10618 56.10618 0 0 0 26.60962-40h16.58057v-16h-72a8.00008 8.00008 0 0 0 -8 8v96a8.00008 8.00008 0 0 0 8 8zm-40-16.13867v-31.05762a40.12417 40.12417 0 0 1 31.1626 31.05762zm0-79.86133h31.19629a40.12649 40.12649 0 0 1 -31.19629 31.19629z"/><path d="m232 160h48a8.00008 8.00008 0 0 0 8-8v-96a8.00008 8.00008 0 0 0 -8-8h-72v16h16.58057a56.10618 56.10618 0 0 0 26.60962 40 56.11044 56.11044 0 0 0 -26.592 39.86133h-16.59819v16h22.54419a8.02393 8.02393 0 0 0 1.45581.13867zm40-96v31.19629a40.12649 40.12649 0 0 1 -31.19629-31.19629zm0 48.80371v31.05762h-31.1626a40.12417 40.12417 0 0 1 31.1626-31.05762z"/><path d="m160 160h16v-16h8a8.00008 8.00008 0 0 0 8-8v-32a8.00008 8.00008 0 0 0 -8-8h-24v-16h32v-16h-16v-16h-16v16h-8a8.00008 8.00008 0 0 0 -8 8v32a8.00008 8.00008 0 0 0 8 8h24v16h-32v16h16z"/><path d="m320 384a8.00008 8.00008 0 0 0 -8 8v48a8.00008 8.00008 0 0 0 8 8h80a8.00008 8.00008 0 0 0 8-8v-48a8.00008 8.00008 0 0 0 -8-8zm72 48h-64v-32h64z"/><path d="m492.74512 321.55957-68.74512-50.65442v-54.90515a8.00008 8.00008 0 0 0 -8-8h-231.99683a7.9904 7.9904 0 0 0 -4.59106 1.44629l-160 112a7.99932 7.99932 0 0 0 -1.8125 11.35351l24 32a8.00105 8.00105 0 0 0 11.01367 1.73584l35.38672-24.97876v146.44312a8.00008 8.00008 0 0 0 8 8h336a8.00008 8.00008 0 0 0 8-8v-120h32a7.99979 7.99979 0 0 0 7.15527-4.42236l16-32a7.99956 7.99956 0 0 0 -2.41015-10.01807zm-132.74512-97.55957h48v56h-48zm-48 0h32v49.052l-32-21.33325zm35.5625 70.65625a7.99836 7.99836 0 0 0 4.4375 1.34375h64a8.00022 8.00022 0 0 0 7.60156-5.51477l40.05518 29.51477h-117.135l-137.14283-96h86.62109v32a7.99943 7.99943 0 0 0 3.5625 6.65625zm-297.82617 54.32568-14.376-19.16845 148.63967-104.04834 148.63965 104.04834-14.376 19.16845-129.65037-91.51757a7.999 7.999 0 0 0 -9.22656 0zm118.26367 131.01807h-32v-80h32zm112 0h-96v-88a8.00008 8.00008 0 0 0 -8-8h-48a8.00008 8.00008 0 0 0 -8 8v88h-16v-149.73718l80-56.47034 96 67.7644zm144 0h-128v-127.149l19.38672 13.68469a7.96321 7.96321 0 0 0 4.60742 1.46485l.00855-.00054h103.99731zm43.05566-128h-131.05542l12-16h127.05567z"/><path d="m208 448h48a8.00008 8.00008 0 0 0 8-8v-48a8.00008 8.00008 0 0 0 -8-8h-48a8.00008 8.00008 0 0 0 -8 8v48a8.00008 8.00008 0 0 0 8 8zm8-48h32v32h-32z"/></svg>