<svg height="512" viewBox="0 0 512 512" width="512" xmlns="http://www.w3.org/2000/svg"><g id="Fill_out_line" data-name="Fill out line"><path d="m24 80h384v408h-384z" fill="#8fd1ec"/><path d="m408 80h80v408h-80z" fill="#37a3c8"/><path d="m408 80h-88a31.89923 31.89923 0 0 0 -9.37-22.62988c-.48-.48-.97009-.94019-1.47009-1.37012a31.8645 31.8645 0 0 0 -21.15991-8h-64a31.99362 31.99362 0 0 0 -32 32h-88a55.96317 55.96317 0 0 1 56-56h192a55.86246 55.86246 0 0 1 39.6 16.3999 56.43771 56.43771 0 0 1 11.01 15.6001 55.73228 55.73228 0 0 1 5.39 24z" fill="#8fd1ec"/><circle cx="216" cy="248" fill="#a8dbf0" r="104"/><path d="m216 360a112 112 0 1 1 112-112 112.12706 112.12706 0 0 1 -112 112zm0-208a96 96 0 1 0 96 96 96.10874 96.10874 0 0 0 -96-96z" fill="#37a3c8"/><rect fill="#808898" height="136" rx="40" width="224" x="80" y="352"/><g fill="#c9d9e5"><circle cx="200" cy="392" r="16"/><circle cx="264" cy="392" r="16"/><circle cx="200" cy="448" r="16"/><circle cx="264" cy="448" r="16"/></g><path d="m152 332v156h-128v-156a19.99447 19.99447 0 0 1 20-20 20.02036 20.02036 0 0 0 19.6-16 20.24637 20.24637 0 0 0 .4-4v-4h48v4a20.24637 20.24637 0 0 0 .4 4 20.00008 20.00008 0 0 0 19.6 16 20.007 20.007 0 0 1 20 20z" fill="#b27d4d"/><path d="m48 240h80v48h-80z" fill="#2f4054"/><path d="m56 344h96v112h-96z" fill="#f3e19f"/><path d="m280 224v48h-40v40h-48v-40h-40v-48h40v-40h48v40z" fill="#e94042"/><path d="m132 304a12.00423 12.00423 0 0 1 -11.31-8h7.31a7.99786 7.99786 0 0 0 8-8v-48a7.99786 7.99786 0 0 0 -8-8h-80a7.99786 7.99786 0 0 0 -8 8v48a7.99786 7.99786 0 0 0 8 8h7.31a12.00423 12.00423 0 0 1 -11.31 8 28.03079 28.03079 0 0 0 -28 28v156a7.99786 7.99786 0 0 0 8 8h128a7.99786 7.99786 0 0 0 8-8v-156a28.03079 28.03079 0 0 0 -28-28zm-76-56h64v32h-64zm88 200h-80v-96h80zm0-112h-88a7.99786 7.99786 0 0 0 -8 8v112a7.99786 7.99786 0 0 0 8 8h88v16h-112v-148a12.00943 12.00943 0 0 1 12-12h36v-16h-10.71a27.49766 27.49766 0 0 0 2.42-8h32.58a27.49766 27.49766 0 0 0 2.42 8h-10.71v16h36a12.00943 12.00943 0 0 1 12 12z"/><path d="m264 496h-88v-16h88a32.03635 32.03635 0 0 0 32-32v-56a32.03635 32.03635 0 0 0 -32-32h-88v-16h88a48.054 48.054 0 0 1 48 48v56a48.054 48.054 0 0 1 -48 48z"/><path d="m200 416a24 24 0 1 1 24-24 24.02718 24.02718 0 0 1 -24 24zm0-32a8 8 0 1 0 8 8 8.00917 8.00917 0 0 0 -8-8z"/><path d="m264 416a24 24 0 1 1 24-24 24.02718 24.02718 0 0 1 -24 24zm0-32a8 8 0 1 0 8 8 8.00917 8.00917 0 0 0 -8-8z"/><path d="m200 472a24 24 0 1 1 24-24 24.02718 24.02718 0 0 1 -24 24zm0-32a8 8 0 1 0 8 8 8.00917 8.00917 0 0 0 -8-8z"/><path d="m264 472a24 24 0 1 1 24-24 24.02718 24.02718 0 0 1 -24 24zm0-32a8 8 0 1 0 8 8 8.00917 8.00917 0 0 0 -8-8z"/><path d="m327.2 72a40.06909 40.06909 0 0 0 -39.2-32h-64a40.06926 40.06926 0 0 0 -39.2 32h-24.8v16h184v-16zm-125.82 0a24.0216 24.0216 0 0 1 22.62-16h64a24.0216 24.0216 0 0 1 22.62 16z"/><path d="m488 72h-72.5a64.09327 64.09327 0 0 0 -63.5-56h-192a64.09336 64.09336 0 0 0 -63.5 56h-72.5a7.99786 7.99786 0 0 0 -8 8v208h16v-200h96v-16h-15.33a48.06383 48.06383 0 0 1 47.33-40h192a48.06394 48.06394 0 0 1 47.33008 40h-23.33008v16h24v392h-80v16h168a7.9979 7.9979 0 0 0 8-8v-408a7.9979 7.9979 0 0 0 -8-8zm-8 408h-64v-392h64z"/><path d="m284.92773 336.28418-9.85449-12.60547a96.01019 96.01019 0 1 0 -150.44433-105.21971l-15.22559-4.918a112.01426 112.01426 0 1 1 175.52441 122.74318z"/><path d="m240 320h-48a8.00008 8.00008 0 0 1 -8-8v-32h-32a8.00008 8.00008 0 0 1 -8-8v-48a8.00008 8.00008 0 0 1 8-8h32v-32a8.00008 8.00008 0 0 1 8-8h48a8.00008 8.00008 0 0 1 8 8v32h32a8.00008 8.00008 0 0 1 8 8v48a8.00008 8.00008 0 0 1 -8 8h-32v32a8.00008 8.00008 0 0 1 -8 8zm-40-16h32v-32a8.00008 8.00008 0 0 1 8-8h32v-32h-32a8.00008 8.00008 0 0 1 -8-8v-32h-32v32a8.00008 8.00008 0 0 1 -8 8h-32v32h32a8.00008 8.00008 0 0 1 8 8z"/></g></svg>