<svg height="512" viewBox="0 0 128 128" width="512" xmlns="http://www.w3.org/2000/svg"><g><g><path d="m1.75 110.252h124.5v9.372h-124.5z" fill="#8a87e0"/><path d="m117.345 52.239-53.97-32.217-53.97 32.217-5.126-8.586 59.096-35.277 59.096 35.277z" fill="#8a87e0"/><path d="m63.375 20.022-44.375 26.489v63.741h88.75v-63.741z" fill="#f7f0eb"/><path d="m31.813 27.217v-18.841h-12.813v26.489z" fill="#ffdf8e"/><path d="m88.9 56.867a11.873 11.873 0 0 0 -9.079-4.222h-1.06a19.471 19.471 0 0 0 -15.386 7.54 19.471 19.471 0 0 0 -15.386-7.54h-.789a12.19 12.19 0 0 0 -8.677 3.494 11.877 11.877 0 0 0 -.195 16.561l22.786 23.975a3.119 3.119 0 0 0 4.522 0l22.786-23.975a11.876 11.876 0 0 0 .478-15.833z" fill="#fd5b6e"/><path d="m79.28 72.572a1.749 1.749 0 0 1 -1.268-2.955l3.4-3.578a2.205 2.205 0 0 0 .088-2.939 1.75 1.75 0 1 1 2.677-2.254 5.7 5.7 0 0 1 -.227 7.6l-3.4 3.578a1.742 1.742 0 0 1 -1.27.548z" fill="#ff3b76"/></g><g><path d="m126.25 108.5h-16.75v-58.906l6.948 4.147a1.752 1.752 0 0 0 2.4-.6l5.126-8.586a1.752 1.752 0 0 0 -.606-2.4l-22.356-13.355a1.75 1.75 0 1 0 -1.794 3.006l20.853 12.448-3.331 5.581-8.092-4.831-44.376-26.485a1.749 1.749 0 0 0 -1.794 0l-44.378 26.489-8.09 4.831-3.331-5.581 13.212-7.887h.006l12.812-7.651 30.661-18.3 12.177 7.26a1.75 1.75 0 0 0 1.794-3.006l-13.069-7.8a1.749 1.749 0 0 0 -1.794 0l-28.915 17.259v-15.758a1.75 1.75 0 0 0 -1.75-1.75h-12.813a1.75 1.75 0 0 0 -1.75 1.75v25.5l-13.868 8.274a1.752 1.752 0 0 0 -.606 2.4l5.124 8.587a1.752 1.752 0 0 0 2.4.6l6.948-4.147v58.911h-15.498a1.75 1.75 0 0 0 -1.75 1.752v9.373a1.75 1.75 0 0 0 1.75 1.75h124.5a1.75 1.75 0 0 0 1.75-1.75v-9.373a1.75 1.75 0 0 0 -1.75-1.752zm-105.5-98.375h9.313v16.1l-9.313 5.56zm0 37.379 42.625-25.444 42.625 25.44v61h-85.25zm103.75 70.371h-121v-5.875h121z"/><path d="m85.17 23.425 4.424 2.64a1.75 1.75 0 1 0 1.794-3.005l-4.424-2.641a1.75 1.75 0 0 0 -1.794 3.006z"/><path d="m79.815 50.9h-1.054a21.384 21.384 0 0 0 -15.386 6.609 21.384 21.384 0 0 0 -15.386-6.609h-.789a14.006 14.006 0 0 0 -9.919 4.01 13.629 13.629 0 0 0 -3.654 6.69 1.75 1.75 0 0 0 3.419.75 10.137 10.137 0 0 1 2.719-4.974 10.486 10.486 0 0 1 7.435-2.976h.79a17.838 17.838 0 0 1 14 6.861 1.812 1.812 0 0 0 2.766 0 17.838 17.838 0 0 1 14-6.861h1.054a10.123 10.123 0 0 1 7.338 17.1l-22.78 23.969a1.4 1.4 0 0 1 -1.986 0l-22.782-23.975a1.75 1.75 0 0 0 -2.54 2.406l22.785 23.981a4.869 4.869 0 0 0 7.06 0l22.785-23.976a13.623 13.623 0 0 0 -9.875-23.005z"/><path d="m78.012 69.617a1.75 1.75 0 1 0 2.537 2.41l3.4-3.578a5.7 5.7 0 0 0 .227-7.6 1.75 1.75 0 1 0 -2.676 2.251 2.205 2.205 0 0 1 -.087 2.941z"/></g></g></svg>