<svg height="512" viewBox="0 0 64 64" width="512" xmlns="http://www.w3.org/2000/svg"><path d="m59 21h-21v-16a3 3 0 0 0 -3-3h-30a3 3 0 0 0 -3 3v54a3 3 0 0 0 3 3h30a3 3 0 0 0 3-3v-12h21a3 3 0 0 0 3-3v-20a3 3 0 0 0 -3-3zm1 3v2.9a5.016 5.016 0 0 1 -3.9-3.9h2.9a1 1 0 0 1 1 1zm-5.92 21h-34.16a7 7 0 0 0 -5.92-5.92v-10.16a7 7 0 0 0 5.92-5.92h34.16a7 7 0 0 0 5.92 5.92v10.16a7 7 0 0 0 -5.92 5.92zm-40.08-3.9a5.016 5.016 0 0 1 3.9 3.9h-2.9a1 1 0 0 1 -1-1zm0-14.2v-2.9a1 1 0 0 1 1-1h2.9a5.016 5.016 0 0 1 -3.9 3.9zm-4-22.9h20v1a1 1 0 0 1 -1 1h-18a1 1 0 0 1 -1-1zm26 55a1 1 0 0 1 -1 1h-30a1 1 0 0 1 -1-1v-54a1 1 0 0 1 1-1h3v1a3 3 0 0 0 3 3h18a3 3 0 0 0 3-3v-1h3a1 1 0 0 1 1 1v16h-21a3 3 0 0 0 -3 3v20a3 3 0 0 0 3 3h21zm23-14h-2.9a5.016 5.016 0 0 1 3.9-3.9v2.9a1 1 0 0 1 -1 1z"/><path d="m8 21h2v-2h2v-2h-2v-2h-2v2h-2v2h2z"/><path d="m18 16h2v-2h2v-2h-2v-2h-2v2h-2v2h2z"/><path d="m18 58h2v-2h2v-2h-2v-2h-2v2h-2v2h2z"/><path d="m10 48h-2v2h-2v2h2v2h2v-2h2v-2h-2z"/><path d="m45.293 18.707a1 1 0 0 0 .707.293.987.987 0 0 0 .383-.076 1 1 0 0 0 .617-.924v-1h4a1 1 0 0 0 1-1v-6a1 1 0 0 0 -1-1h-4v-1a1 1 0 0 0 -1.707-.707l-5 5a1 1 0 0 0 0 1.414zm-.23-8.356a1 1 0 0 0 .937.649h4v4h-4a1 1 0 0 0 -.937.649l-2.649-2.649z"/><path d="m51 51h-4v-1a1 1 0 0 0 -1.707-.707l-5 5a1 1 0 0 0 0 1.414l5 5a1 1 0 0 0 .707.293.987.987 0 0 0 .383-.076 1 1 0 0 0 .617-.924v-1h4a1 1 0 0 0 1-1v-6a1 1 0 0 0 -1-1zm-1 6h-4a1 1 0 0 0 -.937.649l-2.649-2.649 2.649-2.649a1 1 0 0 0 .937.649h4z"/><path d="m37 25a9 9 0 1 0 9 9 9.01 9.01 0 0 0 -9-9zm0 16a7 7 0 1 1 7-7 7.009 7.009 0 0 1 -7 7z"/><path d="m38 28h-2v1a2 2 0 0 0 -2 2v2a2 2 0 0 0 2 2h2v2h-4v2h2v1h2v-1a2 2 0 0 0 2-2v-2a2 2 0 0 0 -2-2h-2v-2h4v-2h-2z"/></svg>