<svg height="512" viewBox="0 0 512 512" width="512" xmlns="http://www.w3.org/2000/svg"><g id="Fill_out_line" data-name="Fill out line"><path d="m39.42689 456h216a0 0 0 0 1 0 0v32a0 0 0 0 1 0 0h-216a16 16 0 0 1 -16-16 16 16 0 0 1 16-16z" fill="#8ccee9"/><rect fill="#37a0c5" height="32" rx="16" width="216" x="207.427" y="456"/><path d="m258.34739 272h213.63728a16 16 0 0 1 14.89989 21.83039l-59.47825 152a16 16 0 0 1 -14.89989 10.16961h-213.63728a16 16 0 0 1 -14.89989-21.83039l59.47825-152a16 16 0 0 1 14.89989-10.16961z" fill="#8ccee9"/><path d="m258.34739 272h181.63728a16 16 0 0 1 14.89989 21.83039l-59.47825 152a16 16 0 0 1 -14.89989 10.16961h-181.63728a16 16 0 0 1 -14.89989-21.83039l59.47825-152a16 16 0 0 1 14.89989-10.16961z" fill="#90c937"/><path d="m352 360h-328v-336h272v280z" fill="#f0de9c"/><path d="m144 296h32v32h-32z" fill="#90c937"/><path d="m240 136a80.01363 80.01363 0 0 1 -64 78.39v49.61h-32v-80h16a48 48 0 1 0 -48-48h-32a80 80 0 0 1 160 0z" fill="#90c937"/><path d="m491.81006 274.47a23.99112 23.99112 0 0 0 -19.83006-10.47h-151.98v16h119.98a7.99982 7.99982 0 0 1 7.4502 10.92l-59.4702 152a7.96964 7.96964 0 0 1 -7.45019 5.08h-181.63969a7.99958 7.99958 0 0 1 -7.4502-10.92l19.63013-50.16-14.90015-5.84-19.6299 50.17a23.97834 23.97834 0 0 0 -.28 16.75h-136.24a24 24 0 0 0 0 48h367.43018a23.98717 23.98717 0 0 0 20.03955-37.19 24.12145 24.12145 0 0 0 7.39013-10.06l59.47022-152a23.98283 23.98283 0 0 0 -2.52002-22.28zm-291 205.53h-160.81006a8 8 0 0 1 0-16h160.81006a23.87629 23.87629 0 0 0 0 16zm206.62012 0h-184.00025a8 8 0 0 1 0-16h184.00025a8 8 0 1 1 0 16zm72-189.08-59.47018 152a7.96964 7.96964 0 0 1 -7.45019 5.08v.55a23.66971 23.66971 0 0 0 -5.07959-.55h-4.28032l59.18018-151.25a24.03657 24.03657 0 0 0 .29-16.75h9.35992a7.99982 7.99982 0 0 1 7.4502 10.92z"/><path d="m352 368h-328a8.00008 8.00008 0 0 1 -8-8v-336a8.00008 8.00008 0 0 1 8-8h272a8.00008 8.00008 0 0 1 8 8v276.686l53.65723 53.65722a8.00038 8.00038 0 0 1 -5.65723 13.65678zm-320-16h300.68652l-42.34375-42.34326a8.00035 8.00035 0 0 1 -2.34277-5.65674v-272h-256z"/><path d="m176 336h-32a8.00008 8.00008 0 0 1 -8-8v-32a8.00008 8.00008 0 0 1 8-8h32a8.00008 8.00008 0 0 1 8 8v32a8.00008 8.00008 0 0 1 -8 8zm-24-16h16v-16h-16z"/><path d="m176 272h-32a8.00008 8.00008 0 0 1 -8-8v-80a8.00008 8.00008 0 0 1 8-8h16a40 40 0 1 0 -40-40 8.00008 8.00008 0 0 1 -8 8h-32a8.00008 8.00008 0 0 1 -8-8 88 88 0 1 1 112 84.67627v43.32373a8.00008 8.00008 0 0 1 -8 8zm-24-16h16v-41.60986a7.99975 7.99975 0 0 1 6.40918-7.84034 72.0033 72.0033 0 1 0 -85.96777-78.5498h16.12793a56.00234 56.00234 0 1 1 55.43066 64h-8z"/></g></svg>