<svg id="Fill_out_line" height="512" viewBox="0 0 512 512" width="512" xmlns="http://www.w3.org/2000/svg" data-name="Fill out line"><path d="m56 368h80a0 0 0 0 1 0 0 40 40 0 0 1 -40 40 40 40 0 0 1 -40-40 0 0 0 0 1 0 0z" fill="#2f4054"/><path d="m160 112h136v64h-136z" fill="#ea8804"/><path d="m264 160v200h-224v-39.42993a136.718 136.718 0 0 1 40-96.57007l13.83008-64z" fill="#f0c033"/><path d="m264 160h32v200h-32z" fill="#e4792e"/><path d="m264 160v64h-184l13.83-64z" fill="#37a0c5"/><path d="m296 112h192v248h-192z" fill="#f0c033"/><path d="m96 280a15.97833 15.97833 0 0 1 -16 16h-37.77a135.607 135.607 0 0 1 10.05-32h27.72a15.99548 15.99548 0 0 1 16 16z" fill="#f0de9c"/><path d="m136 264h32a16 16 0 0 1 16 16 16 16 0 0 1 -16 16h-32a0 0 0 0 1 0 0v-32a0 0 0 0 1 0 0z" fill="#f0de9c" transform="matrix(-1 0 0 -1 320 560)"/><path d="m247.7 112a55.00629 55.00629 0 0 0 -54.45 47.22l-.10986.78-9.14014 64h-104l13.71-64 .97-4.52a55.0124 55.0124 0 0 1 53.78-43.48z" fill="#f0c033"/><g fill="#8ccee9"><path d="m408 168v24h-32v-24a16 16 0 1 1 32 0z"/><path d="m448 240v8h-112v-8a56 56 0 1 1 112 0z"/><path d="m464 248a31.99139 31.99139 0 0 1 -32 32h-80a31.98273 31.98273 0 0 1 -32-32z"/><rect height="32" rx="16" width="144" x="24" y="344"/></g><circle cx="240" cy="368" fill="#2f4054" r="40"/><circle cx="432" cy="368" fill="#2f4054" r="40"/><circle cx="432" cy="368" fill="#c6d6e2" r="16"/><circle cx="240" cy="368" fill="#c6d6e2" r="16"/><path d="m193.14 160-9.14 64h-104l13.71-64z" fill="#8ccee9"/><path d="m488 104h-339.54a63.3181 63.3181 0 0 0 -61.6001 49.8l-.96 4.5.11011.02-13.34009 61.72a143.6314 143.6314 0 0 0 -40.66992 100.53007v16.80993a23.99566 23.99566 0 0 0 8 46.62h10.74146a48.17769 48.17769 0 0 0 45.25854 32 48.055 48.055 0 0 0 45.2627-32h10.7373a24.02187 24.02187 0 0 0 22.62012-16h17.37988a48 48 0 0 0 96 0h96a48 48 0 0 0 96 0h8a7.9979 7.9979 0 0 0 8-8v-248a7.99782 7.99782 0 0 0 -8-8zm-339.54 16h57.4399a63.015 63.015 0 0 0 -19.3799 32h-82.58006a47.24191 47.24191 0 0 1 44.52006-32zm107.54 96h-62.78l6.86011-48h55.91989zm-155.71-48h83.62988l-6.85986 48h-87.15011zm-42.83 104h22.54a8 8 0 1 1 0 16h-27.8501a122.46181 122.46181 0 0 1 5.3101-16zm61.16309 118.623a31.78716 31.78716 0 0 1 -22.62309 9.377 32.12481 32.12481 0 0 1 -27.70776-16h55.40429a32.168 32.168 0 0 1 -5.07348 6.62305zm33.37691-22.623h-112a8 8 0 0 1 0-16h112a8 8 0 0 1 0 16zm42.74-16h-20.11988a24.02187 24.02187 0 0 0 -22.62012-16h-104v-15.42993a128.219 128.219 0 0 1 1.06006-16.57007h30.93994a24 24 0 0 0 0-48h-14.66992a128.5915 128.5915 0 0 1 18.0498-24h172.62012v90.74a48.02256 48.02256 0 0 0 -61.26 29.26zm45.26 48a32 32 0 1 1 32-32 32.036 32.036 0 0 1 -32 32zm48-48h-2.74a48.16723 48.16723 0 0 0 -13.26-19.75v-164.25h16zm0-200h-84.84009a47.3083 47.3083 0 0 1 44.54-32h40.30009zm144 248a32 32 0 1 1 32-32 32.036 32.036 0 0 1 -32 32zm48-48h-2.74a48.00732 48.00732 0 0 0 -90.52 0h-82.74v-232h176z"/><path d="m184 256h-32a24 24 0 0 0 0 48h32a8.00008 8.00008 0 0 0 8-8v-32a8.00008 8.00008 0 0 0 -8-8zm-8 32h-24a8 8 0 0 1 0-16h24z"/><path d="m240 344a24 24 0 1 0 24 24 24.02718 24.02718 0 0 0 -24-24zm0 32a8 8 0 1 1 8-8 8.00917 8.00917 0 0 1 -8 8z"/><path d="m432 344a24 24 0 1 0 24 24 24.02718 24.02718 0 0 0 -24-24zm0 32a8 8 0 1 1 8-8 8.00917 8.00917 0 0 1 -8 8z"/><path d="m352 288h80a40.04552 40.04552 0 0 0 40-40 8.00008 8.00008 0 0 0 -8-8h-8a64.08941 64.08941 0 0 0 -40-59.31335v-12.68665a24 24 0 0 0 -48 0v12.68665a64.08941 64.08941 0 0 0 -40 59.31335h-8a8.00008 8.00008 0 0 0 -8 8 40.04552 40.04552 0 0 0 40 40zm80-16h-80a24.04166 24.04166 0 0 1 -22.62891-16h125.25782a24.04166 24.04166 0 0 1 -22.62891 16zm-48-104a8 8 0 0 1 16 0v8.51782a62.05645 62.05645 0 0 0 -16 0zm8 24a48.054 48.054 0 0 1 48 48h-96a48.054 48.054 0 0 1 48-48z"/></svg>