<svg id="Capa_1" enable-background="new 0 0 512 512" height="512" viewBox="0 0 512 512" width="512" xmlns="http://www.w3.org/2000/svg"><g><g><path d="m384.36 209.159h8.616c6.3 0 12.111 3.395 15.204 8.883l20.039 35.55h2.548v-16.29c0-6.426 5.209-11.635 11.635-11.635h26.761c1.582 0 3.088.318 4.463.89v-90.854c0-1.764-1.43-3.194-3.194-3.194h-86.072z" fill="#eaf6ff"/></g><g><path d="m384.36 209.159h8.616c6.3 0 12.111 3.395 15.204 8.883l20.039 35.55h2.548v-16.29c0-6.426 5.209-11.635 11.635-11.635h4.61v-63.349c0-1.764-1.43-3.194-3.194-3.194h-59.458z" fill="#46cc8d"/></g><g><path d="m156.541 257.082c0-9.639 7.814-17.453 17.453-17.453h59.341c8.443 0 15.485 5.996 17.103 13.963h32.036l20.156-35.582c3.099-5.47 8.899-8.851 15.186-8.851h66.544v-154.668c0-1.764-1.43-3.194-3.194-3.194h-370.472c-1.764 0-3.194 1.43-3.194 3.194v245.917c0 1.764 1.43 3.194 3.194 3.194h145.847z" fill="#fed2a4"/><path d="m156.541 257.082c0-9.639 7.814-17.453 17.453-17.453h59.341c8.443 0 15.485 5.996 17.103 13.963h32.036l20.156-35.582c3.099-5.47 8.899-8.851 15.186-8.851h39.93v-128.054c0-1.764-1.43-3.194-3.194-3.194h-317.244c-1.764 0-3.194 1.43-3.194 3.194v192.688c0 1.764 1.43 3.194 3.194 3.194h119.233z" fill="#c4e2ff"/><path d="m76 81.105c0-1.764 1.43-3.194 3.194-3.194h-41.886c-1.764 0-3.194 1.43-3.194 3.194v158.991l41.886-51.456z" fill="#b3dafe"/><path d="m156.541 257.082c0-9.639 7.814-17.453 17.453-17.453h23.256l-77.25-94.901c-2.13-2.617-6.126-2.617-8.256 0l-77.63 95.368v33.697c0 1.764 1.43 3.194 3.194 3.194h119.233z" fill="#46cc8d"/><g><path d="m65.455 273.793v-33.697l66.088-81.188-11.543-14.18c-2.13-2.617-6.126-2.617-8.256 0l-77.63 95.368v33.697c0 1.764 1.43 3.194 3.194 3.194h31.34c-1.763 0-3.193-1.43-3.193-3.194z" fill="#08b865"/></g><path d="m233.335 239.629c8.443 0 15.485 5.996 17.103 13.963h32.036l20.156-35.582c1.97-3.478 5.035-6.107 8.621-7.563l-36.642-45.014c-2.13-2.617-6.126-2.617-8.256 0l-60.397 74.197h27.379z" fill="#08b865"/><g><circle cx="201.785" cy="133.802" fill="#fe9901" r="22.888"/></g><g><path d="m199.223 133.801c0-8.99 5.185-16.764 12.725-20.508-3.063-1.521-6.512-2.38-10.163-2.38-12.641 0-22.888 10.247-22.888 22.888s10.247 22.888 22.888 22.888c3.651 0 7.101-.859 10.163-2.38-7.54-3.743-12.725-11.518-12.725-20.508z" fill="#fb8801"/></g></g><g><g><path d="m480.8 253.591v-16.29c0-6.426-5.209-11.635-11.635-11.635h-26.761c-6.426 0-11.635 5.209-11.635 11.635v16.29z" fill="#647fa0"/><path d="m451 253.591v-16.29c0-6.426 5.209-11.635 11.635-11.635h-20.233c-6.426 0-11.635 5.209-11.635 11.635v16.29z" fill="#5e6f90"/><path d="m428.219 253.591-20.039-35.55c-3.093-5.488-8.904-8.883-15.204-8.883h-75.161c-6.287 0-12.087 3.381-15.186 8.851l-20.156 35.582z" fill="#799fca"/><path d="m323.737 253.591 20.156-35.582c3.099-5.47 8.899-8.851 15.186-8.851h-41.263c-6.287 0-12.087 3.381-15.186 8.851l-20.156 35.582z" fill="#647fa0"/><g><path d="m487.047 253.591h-237.556c.243 1.127.378 2.293.378 3.491v191.985h225.542c16.065 0 29.089-13.023 29.089-29.089v-148.933c0-9.64-7.814-17.454-17.453-17.454z" fill="#a2c7f8"/></g><path d="m487.047 253.591h-237.557c.243 1.126.378 2.292.378 3.491v58.177h52.345c15.258-17.797 37.888-29.089 63.169-29.089s47.911 11.291 63.169 29.089h75.949v-44.215c0-9.639-7.814-17.453-17.453-17.453z" fill="#8db3df"/><g><path d="m233.335 239.629h-59.341c-9.639 0-17.453 7.814-17.453 17.453v48.869l1.573.919h91.177l1.497-.919v-48.869c0-9.639-7.814-17.453-17.453-17.453z" fill="#799fca"/></g><path d="m187.753 257.082c0-9.639 7.814-17.453 17.453-17.453h-31.212c-9.639 0-17.453 7.814-17.453 17.453v48.869h31.212z" fill="#647fa0"/><g><path d="m239.153 460.703h-53.523c-16.065 0-29.089-13.023-29.089-29.089v-125.663h94.247v143.117c0 6.426-5.209 11.635-11.635 11.635z" fill="#647fa0"/></g><g><path d="m187.752 431.614v-125.663h-31.212v125.663c0 16.065 13.023 29.089 29.089 29.089h31.212c-16.065 0-29.089-13.023-29.089-29.089z" fill="#5e6f90"/></g><g><path d="m172.51 341.471h-15.969v89.091h15.969c6.963 0 12.607-5.644 12.607-12.607v-63.877c0-6.963-5.644-12.607-12.607-12.607z" fill="#0593fc"/></g><g><circle cx="447.522" cy="369.364" fill="#799fca" r="29.671"/></g><g><circle cx="365.383" cy="369.364" fill="#5e6f90" r="83.194"/></g><g><circle cx="365.383" cy="369.364" fill="#a2c7f8" r="57.302"/></g><g><circle cx="365.383" cy="369.364" fill="#647fa0" r="31.559"/></g><g><path d="m354 369.364c0-13.874 9.003-25.677 21.471-29.896-3.17-1.073-6.56-1.663-10.088-1.663-17.401 0-31.559 14.157-31.559 31.559s14.157 31.559 31.559 31.559c3.528 0 6.918-.591 10.088-1.663-12.468-4.219-21.471-16.022-21.471-29.896z" fill="#5e6f90"/></g></g></g><g><path d="m201.785 164.19c16.757 0 30.389-13.632 30.389-30.388s-13.632-30.389-30.389-30.389-30.389 13.632-30.389 30.389c0 16.756 13.632 30.388 30.389 30.388zm0-45.777c8.485 0 15.389 6.903 15.389 15.389 0 8.485-6.903 15.388-15.389 15.388s-15.389-6.903-15.389-15.388c0-8.486 6.904-15.389 15.389-15.389z"/><path d="m488.3 246.123v-8.821c0-6.026-2.806-11.402-7.173-14.912v-18.39c0-4.142-3.357-7.5-7.5-7.5s-7.5 3.358-7.5 7.5v14.166h-11.614v-55.849c0-5.896-4.797-10.694-10.693-10.694h-51.96v-11.614h74.268v28.991c0 4.142 3.357 7.5 7.5 7.5s7.5-3.358 7.5-7.5v-33.297c0-5.896-4.797-10.693-10.693-10.693h-78.574v-70.519c0-5.896-4.797-10.694-10.693-10.694h-370.475c-5.896 0-10.693 4.797-10.693 10.694v245.917c0 5.896 4.797 10.694 10.693 10.694h78.574v70.518c0 5.896 4.797 10.694 10.693 10.694h49.08v39.301c0 20.175 16.413 36.589 36.588 36.589h53.523c7.891 0 14.678-4.802 17.601-11.636h83.68c7.929 2.272 16.299 3.491 24.949 3.491 8.634 0 16.984-1.227 24.9-3.491h85.128c20.175 0 36.589-16.414 36.589-36.588v-148.936c.002-13.339-10.519-24.266-23.698-24.921zm-45.898-12.957h26.762c2.28 0 4.136 1.855 4.136 4.136v8.79h-35.032v-8.79c0-2.281 1.854-4.136 4.134-4.136zm-2.889-66.542v51.768c-7.161 1.092-13.024 6.167-15.26 12.89l-9.539-16.923c-4.416-7.833-12.745-12.7-21.737-12.7h-1.117v-35.035zm-46.536 50.035c3.587 0 6.909 1.941 8.671 5.065l13.735 24.367h-120.041l13.813-24.385c1.764-3.113 5.082-5.047 8.66-5.047zm-159.642 15.47h-11.604l48.75-59.888 29.811 36.622c-1.619 1.596-3.037 3.42-4.187 5.449l-18.002 31.779h-22.373c-4.071-8.262-12.579-13.962-22.395-13.962zm9.953 24.953v41.369h-79.247v-41.369c0-5.488 4.465-9.953 9.953-9.953h59.341c5.488 0 9.953 4.465 9.953 9.953zm-228.288-198.285h361.859v142.862h-11.613v-120.554c0-5.896-4.798-10.694-10.694-10.694h-228.552c-4.143 0-7.5 3.358-7.5 7.5s3.357 7.5 7.5 7.5h224.246v116.248h-32.431c-1.284 0-2.553.11-3.801.304l-33.59-41.265c-2.445-3.005-6.07-4.728-9.944-4.728s-7.499 1.723-9.944 4.728l-58.146 71.432h-1.575l-74.999-92.135c-2.445-3.005-6.07-4.728-9.944-4.728s-7.499 1.723-9.944 4.728l-64.313 79.009v-133.593h49.385c4.143 0 7.5-3.358 7.5-7.5s-3.357-7.5-7.5-7.5h-53.691c-5.896 0-10.694 4.797-10.694 10.694v192.688c0 5.896 4.798 10.694 10.694 10.694h111.732v11.615h-134.041zm115.882 252.305h18.159v39.598h-18.159zm-26.614 66.211v-66.212h11.614v43.904c0 5.896 4.797 10.694 10.693 10.694h22.466v11.614zm44.773-120.231v12.405h-107.427v-26.725l74.258-91.225 65.602 80.592h-7.48c-13.759 0-24.953 11.194-24.953 24.953zm15 91.889h8.469c2.816 0 5.107 2.291 5.107 5.107v63.876c0 2.816-2.291 5.107-5.107 5.107h-8.469zm94.247 92.596v-39.567c0-4.142-3.357-7.5-7.5-7.5s-7.5 3.358-7.5 7.5v47.067c0 2.28-1.855 4.136-4.136 4.136h-53.523c-9.658 0-17.855-6.377-20.603-15.142h7.484c11.087 0 20.107-9.02 20.107-20.107v-63.876c0-11.087-9.021-20.107-20.107-20.107h-8.469v-20.52h79.247v53.549c0 4.142 3.357 7.5 7.5 7.5s7.5-3.358 7.5-7.5v-44.241h29.321c-8.198 13.629-12.919 29.575-12.919 46.605 0 29.428 14.092 55.623 35.878 72.203zm107.095 3.491c-41.737 0-75.693-33.956-75.693-75.694 0-41.737 33.956-75.693 75.693-75.693s75.693 33.956 75.693 75.693c0 41.738-33.956 75.694-75.693 75.694zm131.617-25.079c0 11.904-9.685 21.588-21.589 21.588h-55.213c11.99-9.125 21.651-21.16 27.912-35.047 20.224-.317 36.582-16.857 36.582-37.156 0-20.298-16.358-36.839-36.582-37.156-1.469-3.258-3.135-6.408-4.965-9.449h53.855zm-43.465-71.95c9.311 2.628 16.157 11.194 16.157 21.335s-6.846 18.708-16.157 21.336c1.657-6.845 2.541-13.989 2.541-21.336s-.884-14.49-2.541-21.335zm43.465-40.27h-65.127c-16.575-17.878-40.245-29.088-66.49-29.088s-49.918 11.21-66.494 29.088h-40.601v-46.668h228.759c5.488 0 9.953 4.465 9.953 9.953z"/><path d="m365.383 304.563c-35.731 0-64.802 29.07-64.802 64.802s29.07 64.802 64.802 64.802 64.802-29.07 64.802-64.802-29.071-64.802-64.802-64.802zm0 114.603c-27.461 0-49.802-22.341-49.802-49.802s22.341-49.802 49.802-49.802 49.802 22.341 49.802 49.802-22.341 49.802-49.802 49.802z"/><path d="m365.383 330.306c-21.537 0-39.059 17.521-39.059 39.059s17.521 39.059 39.059 39.059 39.059-17.521 39.059-39.059-17.522-39.059-39.059-39.059zm0 63.117c-13.266 0-24.059-10.792-24.059-24.059s10.793-24.059 24.059-24.059 24.059 10.792 24.059 24.059-10.794 24.059-24.059 24.059z"/></g></g></svg>