<svg id="Capa_1" enable-background="new 0 0 512 512" height="512" viewBox="0 0 512 512" width="512" xmlns="http://www.w3.org/2000/svg"><g><path d="m512 256.001c0 141.384-114.615 255.999-256 255.999-69.164 0-131.921-27.428-177.989-72v-73.11c0-48.791-31.519-91.994-77.98-106.89-.021-1.331-.031-2.664-.031-4 0-141.384 114.614-255.999 255.998-256 141.04-.001 256.002 114.962 256.002 256.001z" fill="#644189"/><path d="m451 256c0 107.696-87.304 195-195 195s-195-87.304-195-195 87.304-195 195-195 195 87.304 195 195z" fill="#754ca0"/><path d="m171.25 175c0 4.142-3.358 7.5-7.5 7.5h-5v5c0 4.142-3.358 7.5-7.5 7.5s-7.5-3.358-7.5-7.5v-5h-5c-4.142 0-7.5-3.358-7.5-7.5 0-4.142 3.358-7.5 7.5-7.5h5v-5c0-4.142 3.358-7.5 7.5-7.5s7.5 3.358 7.5 7.5v5h5c4.142 0 7.5 3.358 7.5 7.5z" fill="#b9a1d3"/><path d="m137.5 110c0 4.142-3.358 7.5-7.5 7.5h-5v5c0 4.142-3.358 7.5-7.5 7.5s-7.5-3.358-7.5-7.5v-5h-5c-4.142 0-7.5-3.358-7.5-7.5 0-4.142 3.358-7.5 7.5-7.5h5v-5c0-4.142 3.358-7.5 7.5-7.5s7.5 3.358 7.5 7.5v5h5c4.142 0 7.5 3.358 7.5 7.5z" fill="#fff5f5"/><path d="m240 280v140h-160v-140h85.667c11.046 0 20-8.954 20-20v-130c0-5.523 4.477-10 10-10h10c16.569 0 30 13.431 30 30v130z" fill="#ffbeaa"/><path d="m240 420h-160v-41.5h160z" fill="#faa68e"/><path d="m130 275v125h-85.69c-27.263-40.001-43.485-88.13-44.279-140h114.969c8.284 0 15 6.716 15 15z" fill="#b9e746"/><path d="m130 390v35c0 8.284-6.716 15-15 15h-36.989c-15.382-14.883-28.904-31.677-40.181-50z" fill="#9bcf1b"/><path d="m290 125v20c0 8.284-6.716 15-15 15h-40c-8.284 0-15-6.716-15-15v-20c0-8.284 6.716-15 15-15h40c8.284 0 15 6.716 15 15zm-55-25h40c8.284 0 15-6.716 15-15s-6.716-15-15-15h-40c-8.284 0-15 6.716-15 15s6.716 15 15 15z" fill="#909ba6"/><path d="m435 460h-190c-8.284 0-15-6.716-15-15v-380c0-8.284 6.716-15 15-15h190c8.284 0 15 6.716 15 15v380c0 8.284-6.716 15-15 15z" fill="#b9c3cd"/><path d="m285 460h-40c-8.284 0-15-6.716-15-15v-380c0-8.284 6.716-15 15-15h40c-8.284 0-15 6.716-15 15v380c0 8.284 6.716 15 15 15z" fill="#a2abb8"/><path d="m410 430h-140c-8.284 0-15-6.716-15-15v-297.5c0-8.284 6.716-15 15-15h140c8.284 0 15 6.716 15 15v297.5c0 8.284-6.716 15-15 15z" fill="#fff5f5"/><path d="m425 120h-170v-25c0-8.284 6.716-15 15-15h140c8.284 0 15 6.716 15 15z" fill="#fcc1b8"/><path d="m285 102.5c0 4.142-3.358 7.5-7.5 7.5s-7.5-3.358-7.5-7.5 3.358-7.5 7.5-7.5 7.5 3.358 7.5 7.5zm117.5-7.5c-4.142 0-7.5 3.358-7.5 7.5s3.358 7.5 7.5 7.5 7.5-3.358 7.5-7.5-3.358-7.5-7.5-7.5z" fill="#fa9084"/><path d="m340 110c-11.046 0-20-8.954-20-20v-25c0-8.284 6.716-15 15-15h10c8.284 0 15 6.716 15 15v25c0 11.046-8.954 20-20 20z" fill="#b9c3cd"/><path d="m347.5 87.5c0 4.142-3.358 7.5-7.5 7.5s-7.5-3.358-7.5-7.5 3.358-7.5 7.5-7.5 7.5 3.358 7.5 7.5z" fill="#909ba6"/><path d="m300 296.5c0-4.142 3.358-7.5 7.5-7.5h65c4.142 0 7.5 3.358 7.5 7.5 0 4.142-3.358 7.5-7.5 7.5h-65c-4.142 0-7.5-3.358-7.5-7.5zm17.5 37.5h45c4.142 0 7.5-3.358 7.5-7.5 0-4.142-3.358-7.5-7.5-7.5h-45c-4.142 0-7.5 3.358-7.5 7.5 0 4.142 3.358 7.5 7.5 7.5zm5-154c4.142 0 7.5-3.358 7.5-7.5v-25c0-4.142-3.358-7.5-7.5-7.5-4.142 0-7.5 3.358-7.5 7.5v25c0 4.142 3.358 7.5 7.5 7.5zm35 0c4.142 0 7.5-3.358 7.5-7.5v-25c0-4.142-3.358-7.5-7.5-7.5-4.142 0-7.5 3.358-7.5 7.5v25c0 4.142 3.358 7.5 7.5 7.5z" fill="#b9c3cd"/><path d="m290 372.5c0-9.665 7.835-17.5 17.5-17.5h65c9.665 0 17.5 7.835 17.5 17.5 0 9.665-7.835 17.5-17.5 17.5h-65c-9.665 0-17.5-7.835-17.5-17.5zm95-102.5h-90c-8.284 0-15-6.716-15-15v-70c0-8.284 6.716-15 15-15h90c8.284 0 15 6.716 15 15v70c0 8.284-6.716 15-15 15zm-15-122.5c0-4.142-3.358-7.5-7.5-7.5h-45c-4.142 0-7.5 3.358-7.5 7.5 0 4.142 3.358 7.5 7.5 7.5h45c4.142 0 7.5-3.358 7.5-7.5z" fill="#fb5858"/><path d="m375 220c0 4.142-3.358 7.5-7.5 7.5h-20v20c0 4.142-3.358 7.5-7.5 7.5s-7.5-3.358-7.5-7.5v-20h-20c-4.142 0-7.5-3.358-7.5-7.5s3.358-7.5 7.5-7.5h20v-20c0-4.142 3.358-7.5 7.5-7.5s7.5 3.358 7.5 7.5v20h20c4.142 0 7.5 3.358 7.5 7.5z" fill="#fff5f5"/><path d="m460 273.667c11.046 0 20 8.954 20 20v10c0 11.046-8.954 20-20 20 11.046 0 20 8.954 20 20v10c0 11.046-8.954 20-20 20 11.046 0 20 8.954 20 20v10c0 11.046-8.954 20-20 20h-35c-13.807 0-25-11.193-25-25 0-13.807 11.193-25 25-25-13.807 0-25-11.193-25-25 0-13.807 11.193-25 25-25-13.807 0-25-11.193-25-25 0-13.807 11.193-25 25-25-13.807 0-25-11.193-25-25 0-13.807 11.193-25 25-25h35c11.046 0 20 8.954 20 20v10c0 11.045-8.954 20-20 20z" fill="#ffbeaa"/><path d="m460 323.667h-35c-13.807 0-25-11.193-25-25 0-13.807 11.193-25 25-25h35c11.046 0 20 8.954 20 20v10c0 11.045-8.954 20-20 20zm20 80v-10c0-11.046-8.954-20-20-20h-35c-13.807 0-25 11.193-25 25 0 13.807 11.193 25 25 25h35c11.046 0 20-8.955 20-20z" fill="#faa68e"/><path d="m410 248.667c0-5.523 4.477-10 10-10h10c5.523 0 10 4.477 10 10s-4.477 10-10 10h-10c-5.523 0-10-4.477-10-10zm20 40h-10c-5.523 0-10 4.477-10 10s4.477 10 10 10h10c5.523 0 10-4.477 10-10s-4.477-10-10-10zm0 50h-10c-5.523 0-10 4.477-10 10s4.477 10 10 10h10c5.523 0 10-4.477 10-10s-4.477-10-10-10zm0 50h-10c-5.523 0-10 4.477-10 10s4.477 10 10 10h10c5.523 0 10-4.477 10-10s-4.477-10-10-10z" fill="#ffdecf"/><path d="m340 400c0 44.183-35.817 80-80 80s-80-35.817-80-80 35.817-80 80-80 80 35.817 80 80z" fill="#9bcf1b"/><path d="m340 400c0 15.691-4.517 30.326-12.322 42.678-12.352 7.805-26.987 12.322-42.678 12.322-44.183 0-80-35.817-80-80 0-15.691 4.517-30.326 12.322-42.678 12.352-7.805 26.987-12.322 42.678-12.322 44.183 0 80 35.817 80 80z" fill="#b9e746"/><path d="m310.901 377.318-53.303 53.304c-1.407 1.406-3.314 2.196-5.304 2.196s-3.896-.79-5.304-2.196l-26.641-26.641c-2.929-2.93-2.929-7.678 0-10.607 2.93-2.928 7.678-2.928 10.607 0l21.337 21.338 47.999-48.001c2.93-2.928 7.678-2.928 10.607 0 2.93 2.929 2.93 7.677.002 10.607z" fill="#fff5f5"/></g></svg>