<svg height="512" viewBox="0 0 42 58" width="512" xmlns="http://www.w3.org/2000/svg"><g id="Page-1" fill="none" fill-rule="evenodd"><g id="032---Business-Woman" fill-rule="nonzero"><path id="Shape" d="m40 30c-.5904229-.4467198-1.2740872-.7543688-2-.9v-12.1c0-9.38884075-7.6111593-17-17-17s-17 7.61115925-17 17v12.1c-.72591275.1456312-1.4095771.4532802-2 .9-1.72172163 1.2912912-2.42398672 3.5394281-1.74341649 5.5811388s2.59126445 3.4188612 4.74341649 3.4188612c.58299335-.0011175 1.16144224-.1025997 1.71-.3-.4634063 1.0453864-.70189575 2.1765078-.7 3.32v13.98c0 1.1045695.8954305 2 2 2h25.98c1.1045695 0 2-.8954305 2-2v-13.98c.0018957-1.1434922-.2365937-2.2746136-.7-3.32.5485578.1974003 1.1270067.2988825 1.71.3 2.152152 0 4.0628463-1.3771505 4.7434165-3.4188612s-.0216949-4.2898476-1.7434165-5.5811388z" fill="#a56a43"/><path id="Shape" d="m21 36-3.3 2.48c-.0877962.0597115-.1816494.10999-.28.15-.3628937.1204328-.7626952.0233936-1.03-.25l-3.39-4.38 3-2z" fill="#ecf0f1"/><path id="Shape" d="m21 58h-12.99c-1.1045695 0-2-.8954305-2-2v-13.98c-.00189575-1.1434922.2365937-2.2746136.7-3.32 1.08999981-2.5907824 3.4965221-4.3889787 6.29-4.7v15c0 4 2 8 8 9z" fill="#3b97d3"/><path id="Shape" d="m35.99 42.02v13.98c0 1.1045695-.8954305 2-2 2h-12.99c6-1 8-5 8-9v-15c2.7934779.3110213 5.2000002 2.1092176 6.29 4.7.4634063 1.0453864.7018957 2.1765078.7 3.32z" fill="#3b97d3"/><path id="Shape" d="m26 32-5 4-5-4s3-2 1.87-4.94c.9726921.5163722 2.0350591.84221 3.13.96 1.0949409-.11779 2.1573079-.4436278 3.13-.96-1.13 2.94 1.87 4.94 1.87 4.94z" fill="#f9c795"/><path id="Shape" d="m29 34-3.39 4.38c-.2673048.2733936-.6671063.3704328-1.03.25-.0983506-.04001-.1922038-.0902885-.28-.15l-3.3-2.48 5-4z" fill="#ecf0f1"/><path id="Shape" d="m24.58 38.63-1.58 2.37h-4l-1.58-2.37c.0983506-.04001.1922038-.0902885.28-.15l3.3-2.48 3.3 2.48c.0877962.0597115.1816494.10999.28.15z" fill="#e64c3c"/><path id="Shape" d="m24.7 50.7-2.98 3c-.1904.192-.4496.3-.72.3s-.5296-.108-.72-.3l-2.98-3c-.2483755-.252821-.3535137-.6132947-.28-.96l1.98-8.74h4l1.98 8.74c.0735137.3467053-.0316245.707179-.28.96z" fill="#c03a2b"/><path id="Shape" d="m29 34v15c0 4-2 8-8 9-6-1-8-5-8-9v-15l3.39 4.38c.2673048.2733936.6671063.3704328 1.03.25l1.58 2.37-1.98 8.74c-.0735137.3467053.0316245.707179.28.96l2.98 3c.1904.192.4496.3.72.3s.5296-.108.72-.3l2.98-3c.2483755-.252821.3535137-.6132947.28-.96l-1.98-8.74 1.58-2.37c.3628937.1204328.7626952.0233936 1.03-.25z" fill="#bdc3c7"/><g fill="#805333"><path id="Shape" d="m8 32c-.55228475 0-1-.4477153-1-1v-6c0-.5522847.44771525-1 1-1s1 .4477153 1 1v6c0 .5522847-.44771525 1-1 1z"/><path id="Shape" d="m12 31c-.5522847 0-1-.4477153-1-1v-2c0-.5522847.4477153-1 1-1s1 .4477153 1 1v2c0 .5522847-.4477153 1-1 1z"/><path id="Shape" d="m34 32c-.5522847 0-1-.4477153-1-1v-6c0-.5522847.4477153-1 1-1s1 .4477153 1 1v6c0 .5522847-.4477153 1-1 1z"/><path id="Shape" d="m30 31c-.5522847 0-1-.4477153-1-1v-2c0-.5522847.4477153-1 1-1s1 .4477153 1 1v2c0 .5522847-.4477153 1-1 1z"/><path id="Shape" d="m10.769 13.081c-1.1 0-1.824-.062-1.856-.065-.54032884-.0591475-.93446363-.5390655-.88743419-1.0805836.04702944-.5415182.51799845-.9463042 1.06043419-.9114164.008 0 .777.062 1.906.056h.008c.5522847-.0022091 1.0017908.4437153 1.004.996.0022091.5522847-.4437153 1.0017908-.996 1.004z"/><path id="Shape" d="m31.231 13.081h-.239c-.5522847-.0022092-.9982091-.4517153-.996-1.004.0022092-.5522847.4517153-.9982091 1.004-.996.069.005.154 0 .228 0 1.009 0 1.678-.057 1.686-.057.5424357-.0348878 1.0134047.3698982 1.0604342.9114164.0470294.5415181-.3471054 1.0214361-.8874342 1.0805836-.032.003-.755.065-1.856.065z"/></g><path id="Shape" d="m12.7 8c-.4213811.00031669-.797746-.2635474-.9411025-.65979363-.1433564-.39624622-.0229398-.83983907.3011025-1.10920637 1.3657427-1.13834681 2.9366409-2.00492055 4.628-2.553.5155043-.14240448 1.0518067.14600104 1.2172307.65458601.165424.50858498-.0985924 1.05730472-.5992307 1.24541399-1.4501727.46943687-2.7970773 1.21213525-3.968 2.188-.1788311.15008375-.4045382.23286662-.638.234z" fill="#fff"/><path id="Shape" d="m29.3 8c-.2330892-.0002913-.4587545-.08199769-.638-.231-1.1709227-.97586475-2.5178273-1.71856313-3.968-2.188-.5006383-.18810927-.7646547-.73682901-.5992307-1.24541399.165424-.50858497.7017264-.79699049 1.2172307-.65458601 1.6913591.54807945 3.2622573 1.41465319 4.628 2.553.32162.26990573.4403861.71197607.2973301 1.106721-.1430559.39474493-.5174645.65808835-.9373301.659279z" fill="#fff"/><path id="Shape" d="m34 18.02c0 1.6568542-1.3431458 3-3 3-.1882886.0003363-.3760566-.0197817-.56-.06-.89 2.7-3.83 4.91-6.31 6.1-.9726921.5163722-2.0350591.84221-3.13.96-1.0949409-.11779-2.1573079-.4436278-3.13-.96-2.48-1.19-5.42-3.4-6.31-6.1-.1839434.0402183-.3717114.0603363-.56.06-1.65685425 0-3-1.3431458-3-3s1.34314575-3 3-3v-3.94c3.41-.01 10-.61 10-5.06 0 4.45 6.59 5.05 10 5.06v3.94c.7956495 0 1.5587112.3160705 2.1213203.8786797.5626092.5626091.8786797 1.3256708.8786797 2.1213203z" fill="#fdd7ad"/><path id="Shape" d="m4 29.1v3.9c0 .5522847-.44771525 1-1 1s-1-.4477153-1-1v-3c.5904229-.4467198 1.27408725-.7543688 2-.9z" fill="#805333"/><path id="Shape" d="m40 30v3c0 .5522847-.4477153 1-1 1s-1-.4477153-1-1v-3.9c.7259128.1456312 1.4095771.4532802 2 .9z" fill="#805333"/><path id="Shape" d="m21.005 24.006c-1.3061094.0083565-2.5778859-.4180316-3.615-1.212-.2875459-.2178756-.4354456-.573742-.3870296-.9312449.0484161-.357503.285641-.6612126.6207795-.7947591.3351384-.1335465.7162281-.0762239.9972501.150004 1.42705 1.0168702 3.34195 1.0168702 4.769 0 .4359506-.3204555 1.0477129-.2360513 1.3806024.1904803.3328896.4265317.2661557 1.0404729-.1506024 1.3855197-1.0371141.7939684-2.3088906 1.2203565-3.615 1.212z" fill="#cf976a"/></g></g></svg>