<svg id="filled_outline" height="512" viewBox="0 0 512 512" width="512" xmlns="http://www.w3.org/2000/svg" data-name="filled outline"><path d="m80 192a24.848 24.848 0 0 0 -22.62082 14.56585l-33.37918 73.43415v72l32 48v8h56v-216z" fill="#ffceb6"/><path d="m432 192a24.848 24.848 0 0 1 22.62082 14.56585l33.37918 73.43415v72l-32 48v8h-56v-216z" fill="#ffceb6"/><circle cx="256" cy="208" fill="#e0edff" r="184"/><path d="m248 103.37724a15.37723 15.37723 0 0 1 15.37724-15.37724h8.93414a15.37725 15.37725 0 0 0 12.30179-6.15089l5.66529-7.55373a15.37724 15.37724 0 0 1 25.48766 1.31482l6.65848 11.09746a15.37722 15.37722 0 0 0 16.20159 7.1671l16.06267-3.21253a15.37723 15.37723 0 0 1 17.60385 10.21591l9.329 27.987a15.37724 15.37724 0 0 1 -1.7935 13.39247l-4.8355 7.25326a15.37722 15.37722 0 0 0 1.92129 19.40313 15.37724 15.37724 0 0 1 -3.99644 24.62716l-76.91756 38.45884h-48z" fill="#02c26a"/><path d="m184 328 16 24 27.53139 3.44142a110.25725 110.25725 0 0 0 68.37861-13.67572h.00006a110.2572 110.2572 0 0 0 38.795-37.29387l25.29494-40.47183-16-24h-47.51624a103.71483 103.71483 0 0 0 -46.3827 10.94947 103.71479 103.71479 0 0 0 -41.56734 37.79663z" fill="#ffc431"/><circle cx="264" cy="200" fill="#ef5e3b" r="40"/><rect fill="#f07f2f" height="35.777" rx="17.603" transform="matrix(.447 -.894 .894 .447 -108.006 289.243)" width="160.997" x="99.502" y="214.111"/><path d="m114.47277 244.32981 58.87681-117.75363a17.60334 17.60334 0 0 1 23.69486-7.83347 17.60335 17.60335 0 0 1 7.795 23.57839l-58.8768 117.75363a17.60336 17.60336 0 0 1 -23.3281 8.01381 17.60335 17.60335 0 0 1 -8.16177-23.75873z" fill="#fa9e54"/><path d="m400 488h72l-16-80h-56z" fill="#6173e8"/><path d="m112 488h-72l16-80h56z" fill="#6173e8"/><path d="m232 296h16v32h-16z"/><path d="m264 280h16v32h-16z"/><path d="m296 264h16v32h-16z"/><path d="m243.056 192h17.889v16h-17.889z" transform="matrix(.447 -.894 .894 .447 -39.583 335.953)"/><path d="m267.056 192h17.889v16h-17.889z" transform="matrix(.447 -.894 .894 .447 -26.316 357.419)"/><path d="m381.64941 153.94824 4.835-7.25342a23.22914 23.22914 0 0 0 2.72753-20.35937l-9.3291-27.98731a23.41469 23.41469 0 0 0 -26.76367-15.53076l-16.0625 3.21289a7.28775 7.28775 0 0 1 -1.01465.12128c-2.498-1.7431-5.05273-3.42346-7.63623-5.02551l-5.77881-9.6319a23.3782 23.3782 0 0 0 -38.749-1.99853l-5.66406 7.55322a7.41422 7.41422 0 0 1 -5.9024 2.95117h-8.93452a23.4041 23.4041 0 0 0 -23.377 23.37744v55.08008a48.26027 48.26027 0 0 0 -8.5625 6.31775 25.46846 25.46846 0 0 0 -11.60449-11.8031l-.50977-.25488a25.56941 25.56941 0 0 0 -9.42114-2.63263l2.093-4.18622a25.6033 25.6033 0 0 0 -45.80078-22.8999l-58.87694 117.75346a25.54016 25.54016 0 0 0 20.91944 36.94922 25.63282 25.63282 0 0 0 11.93018 33.32661l.50977.25488a25.60247 25.60247 0 0 0 34.35058-11.45019l43.00855-86.01575a48.22306 48.22306 0 0 0 27.5081 30.48816 111.68038 111.68038 0 0 0 -43.795 40.20142l-24.5332 39.2539a8.00013 8.00013 0 0 0 .12793 8.67725l16 24a8.00027 8.00027 0 0 0 5.66406 3.501l27.53125 3.44091a116.73359 116.73359 0 0 0 14.47949.89844 118.20257 118.20257 0 0 0 100.47071-55.56592l25.29492-40.47216a8.00013 8.00013 0 0 0 -.12793-8.67725l-16-24a7.99943 7.99943 0 0 0 -6.65623-3.56252h-30.11133l62.60742-31.30371a23.37685 23.37685 0 0 0 6.07422-37.43945 7.39677 7.39677 0 0 1 -.9209-9.3086zm-260.51464 101.374a9.53418 9.53418 0 0 1 .49316-7.415l58.877-117.75293a9.60363 9.60363 0 1 1 17.17969 8.58935l-24.34033 48.68012-34.53936 69.07762a9.65215 9.65215 0 0 1 -12.72388 4.36725 9.5313 9.5313 0 0 1 -4.94628-5.54638zm39.582 37.355a9.60305 9.60305 0 0 1 -12.88379 4.29492l-.50977-.25488a9.61434 9.61434 0 0 1 -4.2959-12.88477l10.08423-20.16815.00659-.012 32.10108-64.20214 14.064-28.12745a9.60305 9.60305 0 0 1 12.88379-4.29492l.50977.25488a9.61434 9.61434 0 0 1 4.2959 12.88477zm71.28323-92.67724a32 32 0 1 1 32 32 32.03635 32.03635 0 0 1 -32-32zm118.47852 64.14014-22.55762 36.09131a102.255 102.255 0 0 1 -99.39746 47.272l-23.89844-2.98734-11.10352-16.65625 21.7959-34.87353a95.71584 95.71584 0 0 1 81.16602-44.98633h43.23535zm20.77832-89.56934a7.37612 7.37612 0 0 1 -1.917 11.81494l-60.2705 30.13526a47.97625 47.97625 0 0 0 -2.87964-39.39673l2.49682-2.49683a49.61359 49.61359 0 0 1 35.31348-14.62744v-16a65.51227 65.51227 0 0 0 -46.62793 19.314l-1.14453 1.14448a48.33987 48.33987 0 0 0 -5.62525-4.38862 62.14078 62.14078 0 0 0 13.39771-38.6973v-1.37256h-16v1.37256a46.28981 46.28981 0 0 1 -12.71338 31.98035 47.62536 47.62536 0 0 0 -19.28662-.67353v-49.30194a7.38577 7.38577 0 0 1 7.377-7.37744h8.93457a23.49186 23.49186 0 0 0 18.70215-9.35107l5.665-7.55323a7.377 7.377 0 0 1 12.22754.63037l6.6582 11.09766a23.43007 23.43007 0 0 0 24.63086 10.896l16.0625-3.21289a7.38672 7.38672 0 0 1 8.44531 4.90087l9.32911 27.98682a7.33132 7.33132 0 0 1 -.86035 6.42578l-4.835 7.25244a23.43872 23.43872 0 0 0 2.91995 29.49805z"/><path d="m461.9043 203.25537a32.85506 32.85506 0 0 0 -14.98682-15.6369c-10.21048-96.32247-91.93262-171.61847-190.91748-171.61847s-180.707 75.296-190.91748 171.61847a32.85506 32.85506 0 0 0 -14.98682 15.6369l-33.3789 73.43408a7.99822 7.99822 0 0 0 -.7168 3.31055v72a7.99983 7.99983 0 0 0 1.34375 4.4375l30.65625 45.98486v4.78516l-15.84473 79.22363a8.00053 8.00053 0 0 0 7.84473 9.56885h72a8.00008 8.00008 0 0 0 8-8v-126.05908a90.59511 90.59511 0 0 0 -2.47339-21.07923 191.68809 191.68809 0 0 0 276.94678 0 90.59511 90.59511 0 0 0 -2.47339 21.07923v126.05908a8.00008 8.00008 0 0 0 8 8h72a8.00053 8.00053 0 0 0 7.84473-9.56885l-15.84473-79.22363v-4.78516l30.65625-45.98486a7.99983 7.99983 0 0 0 1.34375-4.4375v-72a7.99822 7.99822 0 0 0 -.7168-3.31055zm-357.9043 276.74463h-54.24121l12.7998-64h41.44141zm-40-144v-58.812a5.18809 5.18809 0 0 1 10.27539-1.01758l5.87988 29.39844a8.00171 8.00171 0 0 0 2.1875 4.08789 73.45746 73.45746 0 0 1 21.65723 52.28417v38.05908h-40a7.99983 7.99983 0 0 0 -1.34375-4.4375l-30.65625-45.98486v-67.84473l32.041-70.49036a191.53168 191.53168 0 0 0 6.04467 44.79718c-.29929-.01273-.59544-.03973-.89719-.03973a21.21207 21.21207 0 0 0 -21.18848 21.188v58.812zm192 48c-97.04688 0-176-78.95312-176-176s78.95312-176 176-176 176 78.95312 176 176-78.95312 176-176 176zm152 96v-64h41.44141l12.7998 64zm72-130.42236-30.65625 45.98486a7.99983 7.99983 0 0 0 -1.34375 4.4375h-40v-38.05908a73.45746 73.45746 0 0 1 21.65723-52.28418 8.00171 8.00171 0 0 0 2.1875-4.08789l5.87988-29.39893a5.18814 5.18814 0 0 1 10.27539 1.01808v58.812h16v-58.812a21.21207 21.21207 0 0 0 -21.18848-21.188c-.30175 0-.5979.027-.89721.03973a191.53168 191.53168 0 0 0 6.04467-44.79718l32.04102 70.49036z"/></svg>