<?xml version="1.0"?>
<svg xmlns="http://www.w3.org/2000/svg" viewBox="0 0 512 512" width="512" height="512"><g id="Fill_out_line" data-name="Fill out line"><path d="M392,112l86.91125-36.213A14.76922,14.76922,0,0,0,488,62.15386v0A14.76921,14.76921,0,0,0,467.55032,48.5207L392,80Z" style="fill:#4d4d4d"/><path d="M416.57007,303.42993A79.78909,79.78909,0,0,0,360,280l32-168H48l64,200H360a48,48,0,0,1,0,96H80a16,16,0,0,0,0,32H360a80.00216,80.00216,0,0,0,56.57007-136.57007ZM318.3999,280H141.76L98.24,144H345.6001Z" style="fill:#eb352f"/><rect x="24" y="80" width="391.99998" height="32" rx="15.99998" ry="15.99998" style="fill:#c7161f"/><circle cx="152" cy="424" r="48" style="fill:gray"/><circle cx="320" cy="424" r="48" style="fill:gray"/><path d="M152,480a56,56,0,1,1,56-56A56.0629,56.0629,0,0,1,152,480Zm0-96a40,40,0,1,0,40,40A40.04584,40.04584,0,0,0,152,384Z" style="fill:#4d4d4d"/><path d="M320,480a56,56,0,1,1,56-56A56.0629,56.0629,0,0,1,320,480Zm0-96a40,40,0,1,0,40,40A40.04584,40.04584,0,0,0,320,384Z" style="fill:#4d4d4d"/><circle cx="152" cy="424" r="16" style="fill:#4d4d4d"/><circle cx="320" cy="424" r="16" style="fill:#4d4d4d"/><path d="M90.62109,146.43848l43.51953,136A7.99914,7.99914,0,0,0,141.75977,288H318.40039a8,8,0,0,0,7.84473-6.43066l27.19922-136A8.00012,8.00012,0,0,0,345.59961,136H98.24023a7.99941,7.99941,0,0,0-7.61914,10.43848ZM288.33008,224H240V200h48.33008Zm16-24h21.91113l-4.7998,24H304.33008ZM240,240h48.33008v32H240Zm-16,32H176V240h48Zm16-88V152h48.33008v32Zm-16,0H176V152h48Zm0,16v24H176V200Zm-64,24H132.23975l-7.67969-24H160Zm-22.64014,16H160v32H147.59961Zm166.97022,32V240h13.91138l-6.39966,32Zm25.11108-88H304.33008V152h31.51074ZM160,152v32H119.43994L109.2002,152Z"/><path d="M485.86035,43.208a22.725,22.725,0,0,0-21.38672-2.07227L390.39941,72H40a24,24,0,0,0,0,48h2.16064l62.22022,194.43848A8,8,0,0,0,112,320H360a40.00976,40.00976,0,0,1,9.96338,78.75659A55.97189,55.97189,0,0,0,269.41431,400H202.58569a55.983,55.983,0,0,0-101.17138,0H80a24,24,0,0,0,0,48h21.41431a55.983,55.983,0,0,0,101.17138,0h66.82862a55.97609,55.97609,0,0,0,101.48217-.686,88.0017,88.0017,0,0,0-1.32617-174.80224L398.61963,120H400a23.99694,23.99694,0,0,0,20.21533-11.08911l61.772-25.739a22.76945,22.76945,0,0,0,3.873-39.96387ZM80,432a8,8,0,1,1,0-16H96.58057a55.40853,55.40853,0,0,0,0,16Zm72,32a40,40,0,1,1,40-40A40.04584,40.04584,0,0,1,152,464Zm55.41943-32a55.40853,55.40853,0,0,0,0-16h57.16114a55.40853,55.40853,0,0,0,0,16ZM320,464a40,40,0,1,1,40-40A40.04584,40.04584,0,0,1,320,464Zm32.1416-185.49707A7.99966,7.99966,0,0,0,360,288a72.00138,72.00138,0,0,1,15.63818,142.28369,55.08617,55.08617,0,0,0-.56079-16.343A56.005,56.005,0,0,0,360,304H117.83984L58.96,120H382.332ZM400,104H40a8,8,0,0,1,0-16H400a8,8,0,0,1,0,16Zm75.834-35.59766L423.30762,90.28857a24.00551,24.00551,0,0,0-6.90821-11.78808l54.22852-22.59522A6.76917,6.76917,0,0,1,480,62.1543,6.74949,6.74949,0,0,1,475.834,68.40234Z"/><path d="M152,400a24,24,0,1,0,24,24A24.0275,24.0275,0,0,0,152,400Zm0,32a8,8,0,1,1,8-8A8.00917,8.00917,0,0,1,152,432Z"/><path d="M320,400a24,24,0,1,0,24,24A24.0275,24.0275,0,0,0,320,400Zm0,32a8,8,0,1,1,8-8A8.00917,8.00917,0,0,1,320,432Z"/></g></svg>
