<svg id="filled_outline" height="512" viewBox="0 0 512 512" width="512" xmlns="http://www.w3.org/2000/svg" data-name="filled outline"><path d="m24 112h464v288h-464z" fill="#ffd873"/><path d="m56 144h160v224h-160z" fill="#8be0e8"/><path d="m216 280-20.06423-33.44038a13.51093 13.51093 0 0 0 -11.58553-6.55962 13.51092 13.51092 0 0 0 -12.08455 7.46866l-60.26569 120.53134h104z" fill="#9cc221"/><path d="m56 192h20.6863a27.31368 27.31368 0 0 1 19.3137 8 27.31368 27.31368 0 0 0 19.31369 8h4.68631a16 16 0 0 1 16 16 16 16 0 0 1 -16 16h-64z" fill="#cdf4f7"/><path d="m216 144h-20.6863a27.31368 27.31368 0 0 0 -19.3137 8 27.31368 27.31368 0 0 1 -19.31369 8h-4.68631a16 16 0 0 0 -16 16 16 16 0 0 0 16 16h64z" fill="#cdf4f7"/><path d="m176 368-51.99919-96.56993a14.12831 14.12831 0 0 0 -12.43956-7.43007 14.12829 14.12829 0 0 0 -11.75546 6.29133l-43.80579 65.70867v32z" fill="#accd2a"/><path d="m488 104h-464a8.00039 8.00039 0 0 0 -8 8v288a8.00039 8.00039 0 0 0 8 8h464a8.00039 8.00039 0 0 0 8-8v-288a8.00039 8.00039 0 0 0 -8-8zm-8 288h-216v-16h-16v16h-216v-272h216v16h16v-16h216z"/><path d="m216 136h-160a8.00039 8.00039 0 0 0 -8 8v224a8.00039 8.00039 0 0 0 8 8h160a8.00039 8.00039 0 0 0 8-8v-224a8.00039 8.00039 0 0 0 -8-8zm-8 16v32h-56a8 8 0 0 1 0-16h4.68652a35.08246 35.08246 0 0 0 24.97071-10.34277 19.18268 19.18268 0 0 1 13.65625-5.65723zm-56 0a24 24 0 0 0 0 48h56v51.11743l-5.2041-8.67309a21.61855 21.61855 0 0 0 -18.44531-10.44434 21.394 21.394 0 0 0 -19.24024 11.89062l-22.55835 45.1167-11.50708-21.3706a22.129 22.129 0 0 0 -37.89551-1.7832l-29.14941 43.72436v-61.57788h56a24 24 0 0 0 0-48h-4.68652a19.18268 19.18268 0 0 1 -13.65625-5.65723 35.08246 35.08246 0 0 0 -24.97071-10.34277h-12.68652v-32zm-88 80v-32h12.68652a19.18268 19.18268 0 0 1 13.65625 5.65723 35.08246 35.08246 0 0 0 24.97071 10.34277h4.68652a8 8 0 0 1 0 16zm0 106.42188 42.46191-63.69336a6.12889 6.12889 0 0 1 10.49512.49414l45.64897 84.77734h-98.606zm116.77856 21.57812-28.95092-53.7666 27.59326-55.18652a5.51027 5.51027 0 0 1 9.6543-.3711l18.9248 31.54102v77.7832z"/><path d="m248 152h16v16h-16z"/><path d="m248 184h16v16h-16z"/><path d="m248 216h16v16h-16z"/><path d="m248 248h16v16h-16z"/><path d="m248 280h16v16h-16z"/><path d="m248 312h16v16h-16z"/><path d="m248 344h16v16h-16z"/><path d="m312 288h24v16h-24z"/><path d="m352 288h48v16h-48z"/><path d="m416 288h40v16h-40z"/><path d="m288 320h72v16h-72z"/><path d="m376 320h48v16h-48z"/><path d="m440 320h16v16h-16z"/><path d="m288 352h24v16h-24z"/><path d="m328 352h64v16h-64z"/><path d="m408 352h48v16h-48z"/><path d="m315.2002 213.59961-16 12 9.5996 12.80078 16-12a18.75943 18.75943 0 0 1 22.4004 0 34.45732 34.45732 0 0 0 15.51049 6.48145 55.9674 55.9674 0 1 0 -7.26855-52.2146 34.84233 34.84233 0 0 0 -40.24194.93237l-16 12 9.5996 12.80078 16-12a18.75943 18.75943 0 0 1 22.4004 0 34.16154 34.16154 0 0 0 4.86474 3.04346c-.03857.8479-.06494 1.699-.06494 2.55615a56.04 56.04 0 0 0 1.13281 11.23364 34.85765 34.85765 0 0 0 -37.93261 2.36597zm92.7998-53.59961a40 40 0 1 1 -26.00879 70.352 34.1767 34.1767 0 0 0 6.80859-3.95166l16-12-9.5996-12.80078-16 12a18.50678 18.50678 0 0 1 -7.43506 3.31689 39.71536 39.71536 0 0 1 -3.73243-15.62841 34.63226 34.63226 0 0 0 20.76709-6.8877l16-12-9.5996-12.80078-16 12a18.55715 18.55715 0 0 1 -8.30445 3.48535 40.05611 40.05611 0 0 1 37.10425-25.08491z"/></svg>