<svg height="512" viewBox="0 0 64 64" width="512" xmlns="http://www.w3.org/2000/svg"><g id="Layer_34" data-name="Layer 34"><g id="computer"><path d="m61 45v4a2.006 2.006 0 0 1 -2 2h-54a2.006 2.006 0 0 1 -2-2v-4z" fill="#e0e0e2"/><path d="m57 41v-10h-12v10zm-16 0v-6h-18v6z" fill="#46f8ff"/><path d="m61 17v28h-58v-28a2.006 2.006 0 0 1 2-2h54a2.006 2.006 0 0 1 2 2z" fill="#46f8ff"/><path d="m45 31h12v10h-12z" fill="#ff7956"/><path d="m43 57 3 4h-28l3-4h4 14z" fill="#e0e0e2"/><path d="m23 35h18v6h-18z" fill="#ffde55"/><path d="m38 51 1 6h-14l1-6z" fill="#57a4ff"/><path d="m61 45v4a2.006 2.006 0 0 1 -2 2h-4a2.006 2.006 0 0 0 2-2v-4z" fill="#d8d7da"/><path d="m61 17v28h-4v-28a2.006 2.006 0 0 0 -2-2h4a2.006 2.006 0 0 1 2 2z" fill="#00e7f0"/><path d="m46 61h-4l-3-4h4z" fill="#d8d7da"/><path d="m39 57h-4l-1-6h4z" fill="#2488ff"/><circle cx="32" cy="17" fill="#ffde55" r="14"/><g fill="#e0e0e2"><path d="m42 17h4a13.854 13.854 0 0 1 -1.88 7l-3.46-2a9.966 9.966 0 0 0 1.34-5z"/><path d="m44.12 10-3.46 2a10.19 10.19 0 0 0 -3.66-3.66l2-3.46a13.821 13.821 0 0 1 5.12 5.12z"/><path d="m37 25.66 2 3.46a13.854 13.854 0 0 1 -7 1.88v-4a9.966 9.966 0 0 0 5-1.34z"/><path d="m32 3v4a9.966 9.966 0 0 0 -5 1.34l-2-3.46a13.854 13.854 0 0 1 7-1.88z"/><path d="m27 25.66-2 3.46a13.821 13.821 0 0 1 -5.12-5.12l3.46-2a10.19 10.19 0 0 0 3.66 3.66z"/><path d="m19.88 10 3.46 2a9.966 9.966 0 0 0 -1.34 5h-4a13.854 13.854 0 0 1 1.88-7z"/></g><circle cx="32" cy="17" fill="#ffde55" r="10"/><path d="m42 17a10 10 0 0 1 -18.78 4.78 9.9 9.9 0 0 0 4.78 1.22 10 10 0 0 0 10-10 9.9 9.9 0 0 0 -1.22-4.78 9.984 9.984 0 0 1 5.22 8.78z" fill="#ffcd00"/><path d="m59 14h-12.3a15 15 0 0 0 -29.4 0h-12.3a3.009 3.009 0 0 0 -3 3v32a3.009 3.009 0 0 0 3 3h19.82l-.67 4h-3.15a1.014 1.014 0 0 0 -.8.4l-3 4a1 1 0 0 0 .8 1.6h28a1 1 0 0 0 .8-1.6l-3-4a1.014 1.014 0 0 0 -.8-.4h-3.15l-.67-4h19.82a3.009 3.009 0 0 0 3-3v-32a3.009 3.009 0 0 0 -3-3zm-14.05 2h-2a11.089 11.089 0 0 0 -.97-3.6l1.73-1.01a13.022 13.022 0 0 1 1.24 4.61zm-2.97 5.6a11.089 11.089 0 0 0 .97-3.6h2a13.022 13.022 0 0 1 -1.24 4.61zm.74 2.74a13.244 13.244 0 0 1 -3.38 3.38l-1-1.74a11.406 11.406 0 0 0 2.64-2.64zm-3.38-18.06a13.244 13.244 0 0 1 3.38 3.38l-1.74 1a11.406 11.406 0 0 0 -2.64-2.64zm-6.34-2.23a13.022 13.022 0 0 1 4.61 1.24l-1.01 1.73a11.089 11.089 0 0 0 -3.6-.97zm8 12.95a9 9 0 1 1 -9-9 9.014 9.014 0 0 1 9 9zm-3.39 11.71a13.022 13.022 0 0 1 -4.61 1.24v-2a11.089 11.089 0 0 0 3.6-.97zm-6.61-.76v2a13.022 13.022 0 0 1 -4.61-1.24l1.01-1.73a11.089 11.089 0 0 0 3.6.97zm-5.34-1.97-1 1.74a13.244 13.244 0 0 1 -3.38-3.38l1.74-1a11.406 11.406 0 0 0 2.64 2.64zm5.34-21.93v2a11.089 11.089 0 0 0 -3.6.97l-1.01-1.73a13.022 13.022 0 0 1 4.61-1.24zm-6.34 2.23 1 1.74a11.406 11.406 0 0 0 -2.64 2.64l-1.74-1a13.244 13.244 0 0 1 3.38-3.38zm-4.37 5.11 1.73 1.01a11.089 11.089 0 0 0 -.97 3.6h-2a13.022 13.022 0 0 1 1.24-4.61zm.76 6.61a11.089 11.089 0 0 0 .97 3.6l-1.73 1.01a13.022 13.022 0 0 1 -1.24-4.61zm21.45 40 1.5 2h-24l1.5-2zm-16.32-2 .67-4h10.3l.67 4zm33.82-7a1 1 0 0 1 -1 1h-54a1 1 0 0 1 -1-1v-3h56zm0-5h-56v-27a1 1 0 0 1 1-1h12.05c-.02.33-.05.66-.05 1a15 15 0 0 0 30 0c0-.34-.03-.67-.05-1h12.05a1 1 0 0 1 1 1z"/><path d="m31 24h2v-2a2 2 0 0 0 2-2v-2a2 2 0 0 0 -2-2h-2v-2h4v-2h-2v-2h-2v2a2 2 0 0 0 -2 2v2a2 2 0 0 0 2 2h2v2h-4v2h2z"/><path d="m18 30h2v12h-2z"/><path d="m10 32h2v10h-2z"/><path d="m14 34h2v8h-2z"/><path d="m6 34h2v8h-2z"/><path d="m23 42h18a1 1 0 0 0 1-1v-6a1 1 0 0 0 -1-1h-18a1 1 0 0 0 -1 1v6a1 1 0 0 0 1 1zm1-6h16v4h-16z"/><path d="m45 42h12a1 1 0 0 0 1-1v-10a1 1 0 0 0 -1-1h-12a1 1 0 0 0 -1 1v10a1 1 0 0 0 1 1zm1-10h10v8h-10z"/><path d="m50 18h8v2h-8z"/><path d="m50 26h8v2h-8z"/><path d="m50 22h2v2h-2z"/><path d="m54 22h4v2h-4z"/><path d="m6 18h8v2h-8z"/><path d="m6 26h8v2h-8z"/><path d="m12 22h2v2h-2z"/><path d="m6 22h4v2h-4z"/><path d="m47 8h2v-2h2v-2h-2v-2h-2v2h-2v2h2z"/><path d="m55 12h2v-2h2v-2h-2v-2h-2v2h-2v2h2z"/><path d="m15 8h2v-2h2v-2h-2v-2h-2v2h-2v2h2z"/><path d="m7 12h2v-2h2v-2h-2v-2h-2v2h-2v2h2z"/></g></g></svg>